<svg width="15" height="16" viewBox="0 0 15 16" fill="none" xmlns="http://www.w3.org/2000/svg">
<path d="M14.4067 7.55668C14.3511 7.41347 14.2679 7.28263 14.1617 7.17168L8.32833 1.33835C8.21956 1.22957 8.09042 1.14328 7.94829 1.08441C7.80617 1.02554 7.65384 0.995239 7.5 0.995239C7.18932 0.995239 6.89135 1.11866 6.67167 1.33835C6.56289 1.44712 6.4766 1.57626 6.41773 1.71839C6.35886 1.86051 6.32856 2.01284 6.32856 2.16668C6.32856 2.47737 6.45198 2.77533 6.67167 2.99501L10.5217 6.83335H1.66667C1.35725 6.83335 1.0605 6.95626 0.841709 7.17506C0.622917 7.39385 0.5 7.69059 0.5 8.00001C0.5 8.30943 0.622917 8.60618 0.841709 8.82497C1.0605 9.04376 1.35725 9.16668 1.66667 9.16668H10.5217L6.67167 13.005C6.56232 13.1135 6.47552 13.2425 6.41629 13.3847C6.35706 13.5268 6.32657 13.6793 6.32657 13.8333C6.32657 13.9874 6.35706 14.1399 6.41629 14.282C6.47552 14.4242 6.56232 14.5532 6.67167 14.6617C6.78012 14.771 6.90916 14.8578 7.05133 14.9171C7.1935 14.9763 7.34599 15.0068 7.5 15.0068C7.65401 15.0068 7.8065 14.9763 7.94867 14.9171C8.09084 14.8578 8.21988 14.771 8.32833 14.6617L14.1617 8.82835C14.2679 8.71739 14.3511 8.58656 14.4067 8.44335C14.5234 8.15931 14.5234 7.84072 14.4067 7.55668Z" fill="white"/>
</svg>
