<svg width="335" height="98" viewBox="0 0 335 98" fill="none" xmlns="http://www.w3.org/2000/svg">
<path d="M43 25.0626C-21.0081 -1.28026 -60.1968 49.1057 -70 71.6493V88.0625H405V47.0626C302.19 -36.1903 211.5 13.5624 172.443 28.7374C140 41.3425 99.6756 48.3878 43 25.0626Z" fill="#5F5174" fill-opacity="0.4"/>
<path d="M42.3244 38.7376C-21.6837 12.3947 -60.1968 59.1059 -70 81.6494V98.0627H405V70.7732C302.849 -11.9467 212.662 23.1058 173.199 38.4435L172.443 38.7376C140 51.3427 99 62.0627 42.3244 38.7376Z" fill="#6E6280"/>
<path d="M26.6356 66.373C26.0231 66.0207 25.8504 65.5102 26.1301 64.8786C26.4455 64.1662 27.0397 63.9043 27.7692 64.1562C27.8181 64.2068 27.8698 64.2545 27.9241 64.2992L27.9208 64.2907C28.3201 64.6904 28.4071 65.1715 28.123 65.6395C27.7978 66.1753 27.3227 66.5212 26.6356 66.373Z" fill="#534963"/>
<path d="M82.6356 81.373C82.0231 81.0207 81.8504 80.5102 82.1301 79.8786C82.4455 79.1662 83.0397 78.9043 83.7692 79.1562C83.8181 79.2068 83.8698 79.2545 83.9241 79.2992L83.9208 79.2907C84.3201 79.6904 84.4071 80.1715 84.123 80.6395C83.7978 81.1753 83.3227 81.5212 82.6356 81.373Z" fill="#534963"/>
<path d="M143.493 62.1994C144.199 62.1982 144.604 62.554 144.678 63.2408C144.761 64.0155 144.377 64.5394 143.62 64.686C143.552 64.6667 143.483 64.6512 143.414 64.6396L143.421 64.6454C142.875 64.4988 142.559 64.1256 142.571 63.5784C142.585 62.9517 142.824 62.4146 143.493 62.1994Z" fill="#534963"/>
<path d="M227.822 33.8725C228.322 34.3713 228.357 34.9091 227.923 35.4469C227.434 36.0533 226.792 36.1525 226.153 35.7204C226.119 35.6589 226.081 35.5994 226.04 35.5421L226.041 35.5513C225.759 35.0618 225.8 34.5745 226.195 34.1961C226.648 33.7627 227.196 33.5515 227.822 33.8725Z" fill="#534963"/>
<path d="M290.062 61.8285C289.45 62.1828 288.922 62.0771 288.515 61.5191C288.056 60.8897 288.126 60.2442 288.709 59.7384C288.777 59.7213 288.844 59.7004 288.91 59.6757L288.901 59.6743C289.447 59.5284 289.907 59.6936 290.17 60.1736C290.472 60.7232 290.534 61.3076 290.062 61.8285Z" fill="#534963"/>
<path d="M319.701 86.248C319.347 85.6366 319.453 85.1082 320.011 84.701C320.64 84.2418 321.285 84.3121 321.791 84.8949C321.808 84.9632 321.829 85.0304 321.854 85.0963L321.855 85.0872C322.001 85.633 321.836 86.0932 321.356 86.3564C320.806 86.6578 320.222 86.7199 319.701 86.248Z" fill="#534963"/>
<path d="M200.568 79.3813C200.213 78.7699 200.319 78.2415 200.877 77.8343C201.506 77.3751 202.152 77.4454 202.658 78.0282C202.675 78.0965 202.696 78.1637 202.72 78.2296L202.722 78.2205C202.868 78.7663 202.702 79.2265 202.223 79.4897C201.673 79.7911 201.089 79.8532 200.568 79.3813Z" fill="#534963"/>
<path d="M26.6355 66.373C26.707 66.3404 26.7767 66.3033 26.8502 66.276C28.1074 65.8095 28.2336 65.576 27.9208 64.2906C28.5516 64.4441 28.6718 64.9382 28.708 65.4859C28.7444 66.0374 28.4231 66.418 27.9819 66.591C27.5407 66.764 27.0117 66.8834 26.6355 66.373Z" fill="#443A53"/>
<path d="M82.6355 81.373C82.707 81.3404 82.7767 81.3033 82.8502 81.276C84.1074 80.8095 84.2336 80.576 83.9208 79.2906C84.5516 79.4441 84.6718 79.9382 84.708 80.4859C84.7444 81.0374 84.4231 81.418 83.9819 81.591C83.5407 81.764 83.0117 81.8834 82.6355 81.373Z" fill="#443A53"/>
<path d="M143.493 62.1997C143.447 62.2636 143.406 62.3307 143.356 62.391C142.5 63.4237 142.507 63.6889 143.421 64.6457C142.798 64.8283 142.447 64.4604 142.142 64.0042C141.834 63.5448 141.922 63.0545 142.218 62.6841C142.514 62.3137 142.912 61.9458 143.493 62.1997Z" fill="#443A53"/>
<path d="M227.822 33.873C227.744 33.8859 227.667 33.9038 227.589 33.9111C226.254 34.0364 226.072 34.2292 226.041 35.5517C225.472 35.2403 225.483 34.7319 225.59 34.1935C225.698 33.6513 226.107 33.3668 226.578 33.3139C227.049 33.261 227.59 33.2827 227.822 33.873Z" fill="#443A53"/>
<path d="M290.061 61.8284C290.069 61.7502 290.071 61.6712 290.085 61.594C290.309 60.2719 290.17 60.0459 288.9 59.6742C289.349 59.2045 289.837 59.3475 290.329 59.59C290.825 59.8342 290.994 60.3028 290.923 60.7714C290.852 61.24 290.691 61.7578 290.061 61.8284Z" fill="#443A53"/>
<path d="M319.701 86.2473C319.779 86.2549 319.858 86.2576 319.936 86.2707C321.258 86.4953 321.484 86.3562 321.856 85.0866C322.325 85.5349 322.182 86.0229 321.94 86.5153C321.695 87.0112 321.227 87.1801 320.758 87.1094C320.29 87.0386 319.772 86.8774 319.701 86.2473Z" fill="#443A53"/>
<path d="M200.568 79.3806C200.646 79.3882 200.725 79.3909 200.802 79.404C202.124 79.6286 202.35 79.4895 202.722 78.2199C203.192 78.6682 203.049 79.1562 202.806 79.6486C202.562 80.1445 202.093 80.3134 201.625 80.2427C201.156 80.1719 200.638 80.0107 200.568 79.3806Z" fill="#443A53"/>
<path d="M17.0452 86.5849C17.4955 84.562 18.9184 83.9741 20.2565 84.073C22.468 84.2366 23.4744 85.7413 23.4998 87.2801C23.5117 88.0053 23.4909 88.7087 22.7401 89.1107C21.0902 90.2125 18.0132 88.7569 17.2403 87.0164C17.1763 86.8721 17.145 86.7129 17.0452 86.5849Z" fill="#534963"/>
<path d="M13.1106 46.9861C14.6373 48.3875 14.435 49.9137 13.6802 51.0231C12.4328 52.8566 10.6265 52.9758 9.28119 52.2283C8.64717 51.876 8.04838 51.5063 8.07568 50.6551C7.94649 48.6754 10.7456 46.7384 12.6393 46.9394C12.7963 46.956 12.9498 47.0085 13.1106 46.9861Z" fill="#534963"/>
<path d="M17.0453 86.5846C17.3872 86.6105 17.3906 86.9391 17.5329 87.1406C18.523 88.5427 19.855 89.2784 21.582 89.2679C21.977 89.2656 22.3365 89.031 22.74 89.1104C21.985 90.2912 20.5841 90.6597 19.1307 90.089C17.5932 89.4852 16.7952 88.0726 17.0453 86.5846Z" fill="#443A53"/>
<path d="M199.186 53.639C198.228 55.4764 196.701 55.676 195.434 55.2341C193.34 54.5037 192.757 52.7898 193.131 51.2969C193.307 50.5933 193.51 49.9192 194.339 49.7253C196.218 49.0881 198.813 51.2905 199.109 53.1717C199.134 53.3277 199.123 53.4895 199.186 53.639Z" fill="#534963"/>
<path d="M257.421 86.0192C255.398 85.5689 254.81 84.1459 254.909 82.8079C255.072 80.5963 256.577 79.5899 258.116 79.5646C258.841 79.5526 259.545 79.5734 259.947 80.3243C261.048 81.9741 259.593 85.0512 257.852 85.824C257.708 85.888 257.549 85.9193 257.421 86.0192Z" fill="#534963"/>
<path d="M199.186 53.6393C198.862 53.5258 198.944 53.2075 198.859 52.976C198.265 51.3654 197.169 50.3101 195.498 49.8732C195.116 49.7732 194.708 49.9068 194.339 49.7256C195.374 48.7805 196.822 48.7871 198.079 49.7146C199.408 50.6957 199.813 52.2668 199.186 53.6393Z" fill="#443A53"/>
<path d="M257.421 86.0193C257.447 85.6773 257.775 85.674 257.977 85.5317C259.379 84.5416 260.114 83.2096 260.104 81.4826C260.102 81.0875 259.867 80.7281 259.946 80.3246C261.127 81.0796 261.496 82.4805 260.925 83.9338C260.321 85.4714 258.909 86.2694 257.421 86.0193Z" fill="#443A53"/>
<path d="M13.1106 46.9861C12.9173 47.2693 12.631 47.1079 12.3853 47.1304C10.676 47.2868 9.37289 48.0725 8.51845 49.5733C8.32299 49.9167 8.34642 50.3452 8.07589 50.6549C7.43085 49.4107 7.81208 48.0133 9.03307 47.04C10.3248 46.0103 11.9471 46.0255 13.1106 46.9861Z" fill="#443A53"/>
<path d="M163.796 42.0182L269.06 36.3441L274.776 57.1293L169.121 61.3798L163.796 42.0182Z" fill="#5F4113"/>
<path d="M165.917 49.7318L272.389 48.4516L274.776 57.1294L169.121 61.3798L165.917 49.7318Z" fill="#5C3E10"/>
<path d="M300.64 11.6423L268.936 35.894L274.776 57.1294L305.39 28.9137L300.64 11.6423Z" fill="#5F4113"/>
<path d="M180.546 34.3001L163.919 42.4682L268.093 37.1875L300.669 11.7495L180.546 34.3001Z" fill="#5F4113"/>
<path d="M274.869 57.1038L305.419 29.0219L300.62 11.5705M274.869 57.1038L266.818 27.8305M274.869 57.1038L169.193 61.6435L164.006 42.7848M266.818 27.8305L300.62 11.5705M266.818 27.8305L164.006 42.7848M300.62 11.5705L181.356 34.0772L164.006 42.7848" stroke="#553A11" stroke-width="3" stroke-linecap="round"/>
<rect width="38.1727" height="11.9971" transform="matrix(-0.964851 0.262796 0.262796 0.964851 73.2339 18.5706)" fill="#242424"/>
<path d="M64.0944 30.6685L59.1686 29.1842L55.4855 30.1874L50.7972 33.7251L56.9104 60.3195L61.9795 62.33L67.7672 60.7536L71.4994 55.7807L64.0944 30.6685Z" fill="#FFA114"/>
<path d="M78.5877 27.8511L75.0971 25.4107L70.984 24.8354L64.144 26.6984L61.7998 28.4673L64.2382 31.1943L71.4999 55.7804L67.7676 60.7532L77.2384 58.1737L84.1276 52.341L85.6611 43.4454L83.0815 33.9746L78.5877 27.8511Z" fill="#FFA928"/>
<path d="M87.1491 26.0841L85.0936 22.6876L78.3027 20.5809L64.5264 26.0287L72.1792 25.0747L75.0966 25.4105L78.5873 27.8509L83.0811 33.9744L85.6606 43.4452L83.9839 51.8145L86.1847 49.5195L89.3908 44.69L90.0623 38.8552L89.9211 32.1113L87.1491 26.0841Z" fill="#FFB23F"/>
<path d="M85.4763 22.0183L77.4427 17.4241L72.4206 17.6616L62.9478 26.4588L71.0796 23.1135L78.4458 21.1072L83.8978 22.4482L87.1489 26.0842L85.4763 22.0183Z" fill="#FFA114"/>
<path d="M29.7039 37.209L34.298 29.1754L38.7468 26.8333L51.3725 29.6115L42.6674 30.8522L35.3012 32.8585L31.2823 36.779L30.3242 41.5615L29.7039 37.209Z" fill="#FFA928"/>
<path d="M29.7977 41.7049L29.8468 37.7352L34.6314 32.4757L49.2675 30.1849L42.1879 33.2435L39.8438 35.0124L38.0729 38.8858L37.3051 46.4424L39.8846 55.9132L45.5741 62.2763L42.5134 61.4143L37.3009 58.8777L33.7632 54.1894L30.465 48.3054L29.7977 41.7049Z" fill="#FFB23F"/>
<path d="M37.0212 39.1727L38.7921 35.2992L42.0453 32.7176L48.8853 30.8545L51.8027 31.1903L51.0841 34.7772L57.2934 59.6498L62.5059 62.1865L53.5612 64.6227L44.6657 63.0893L38.6896 55.6739L36.2534 46.7293L37.0212 39.1727Z" fill="#FE9800"/>
<path d="M70.0294 17.1825L65.1507 17.9461L62.4237 20.3845L60.6527 24.258L60.6998 26.5059L62.5649 27.1283L72.4206 17.6616L70.0294 17.1825Z" fill="#FFB23F"/>
<path d="M39.6559 26.0207L44.248 24.2047L47.8349 24.9233L51.3255 27.3637L52.4249 29.3251L51.133 30.8073L37.8379 27.6462L39.6559 26.0207Z" fill="#FFA114"/>
<path d="M55.1518 26.8866L52.5702 23.6335L51.2313 22.8678L48.84 22.3887L45.5398 22.7224L44.6308 23.5352L44.2479 24.2046L47.8348 24.9232L51.3254 27.3636L53.0943 29.7078L55.1518 26.8866Z" fill="#FE9800"/>
<path d="M55.1518 26.8866L51.2312 22.8678L53.4967 20.8101L58.1675 19.283L62.8066 19.715L61.4186 22.919L60.4133 25.4536L55.1518 26.8866Z" fill="#FE9800"/>
<path d="M62.7087 27.655L60.4137 25.4541L55.0088 26.3611L53.2379 30.2345L56.2986 31.0965L61.5602 29.6634L62.7087 27.655Z" fill="#4B2F04"/>
<path d="M71.3991 34.5968C72.6944 36.7376 72.4917 39.231 70.9464 40.166C69.4011 41.1009 65.3154 42.9672 64.0201 40.8263C62.7248 38.6855 64.7106 33.3482 66.2559 32.4132C67.8011 31.4783 70.1039 32.4559 71.3991 34.5968Z" fill="#232323"/>
<path d="M50.219 46.5754C51.037 47.9275 52.7963 48.3604 54.1484 47.5424C55.5006 46.7243 58.6715 44.4233 57.8534 43.0712C57.0353 41.7191 52.5381 41.8278 51.186 42.6459C49.8339 43.464 49.4009 45.2232 50.219 46.5754Z" fill="#232323"/>
<path d="M54.1162 53.8241L72.7146 44.6454L73.0424 47.9916L68.8646 48.3847L67.4687 51.4664L64.0871 51.3632L62.0449 54.295L57.2207 54.5382L54.1162 53.8241Z" fill="#232323"/>
<path d="M55.8372 19.8486L52.598 19.2829L55.2786 24.6268L56.1187 27.7111L60.6784 27.0317L58.63 23.4378L55.8372 19.8486Z" fill="#4B2F04"/>
</svg>
