<svg width="335" height="110" viewBox="0 0 335 110" fill="none" xmlns="http://www.w3.org/2000/svg">
<path d="M43 37.0626C-21.0081 10.7197 -60.1968 61.1057 -70 83.6493V100.063H405V59.0626C302.19 -24.1903 211.5 25.5624 172.443 40.7374C140 53.3425 99.6756 60.3878 43 37.0626Z" fill="#6BB2B2" fill-opacity="0.1"/>
<path d="M42.3244 50.7376C-21.6837 24.3947 -60.1968 71.1059 -70 93.6494V110.063H405V82.7732C302.849 0.0532894 212.662 35.1058 173.199 50.4435L172.443 50.7376C140 63.3427 99 74.0627 42.3244 50.7376Z" fill="#437E7E"/>
<path d="M26.6356 78.373C26.0231 78.0207 25.8504 77.5102 26.1301 76.8786C26.4455 76.1662 27.0397 75.9043 27.7692 76.1562C27.8181 76.2068 27.8698 76.2545 27.9241 76.2992L27.9208 76.2907C28.3201 76.6904 28.4071 77.1715 28.123 77.6395C27.7978 78.1753 27.3227 78.5212 26.6356 78.373Z" fill="#5E9896"/>
<path d="M82.6356 93.373C82.0231 93.0207 81.8504 92.5102 82.1301 91.8786C82.4455 91.1662 83.0397 90.9043 83.7692 91.1562C83.8181 91.2068 83.8698 91.2545 83.9241 91.2992L83.9208 91.2907C84.3201 91.6904 84.4071 92.1715 84.123 92.6395C83.7978 93.1753 83.3227 93.5212 82.6356 93.373Z" fill="#5E9896"/>
<path d="M143.493 74.1994C144.199 74.1982 144.604 74.554 144.678 75.2408C144.761 76.0155 144.377 76.5394 143.62 76.686C143.552 76.6667 143.483 76.6512 143.414 76.6396L143.421 76.6454C142.875 76.4988 142.559 76.1256 142.571 75.5784C142.585 74.9517 142.824 74.4146 143.493 74.1994Z" fill="#5E9896"/>
<path d="M227.822 45.8725C228.322 46.3713 228.357 46.9091 227.923 47.4469C227.434 48.0533 226.792 48.1525 226.153 47.7204C226.119 47.6589 226.081 47.5994 226.04 47.5421L226.041 47.5513C225.759 47.0618 225.8 46.5745 226.195 46.1961C226.648 45.7627 227.196 45.5515 227.822 45.8725Z" fill="#5E9896"/>
<path d="M290.062 73.8285C289.45 74.1828 288.922 74.0771 288.515 73.5191C288.056 72.8897 288.126 72.2442 288.709 71.7384C288.777 71.7213 288.844 71.7004 288.91 71.6757L288.901 71.6743C289.447 71.5284 289.907 71.6936 290.17 72.1736C290.472 72.7232 290.534 73.3076 290.062 73.8285Z" fill="#5E9896"/>
<path d="M319.701 98.248C319.347 97.6366 319.453 97.1082 320.011 96.701C320.64 96.2418 321.285 96.3121 321.791 96.8949C321.808 96.9632 321.829 97.0304 321.854 97.0963L321.855 97.0872C322.001 97.633 321.836 98.0932 321.356 98.3564C320.806 98.6578 320.222 98.7199 319.701 98.248Z" fill="#5E9896"/>
<path d="M200.568 91.3813C200.213 90.7699 200.319 90.2415 200.877 89.8343C201.506 89.3751 202.152 89.4454 202.658 90.0282C202.675 90.0965 202.696 90.1637 202.72 90.2296L202.722 90.2205C202.868 90.7663 202.702 91.2265 202.223 91.4897C201.673 91.7911 201.089 91.8532 200.568 91.3813Z" fill="#5E9896"/>
<path d="M26.6355 78.373C26.707 78.3404 26.7767 78.3033 26.8502 78.276C28.1074 77.8095 28.2336 77.576 27.9208 76.2906C28.5516 76.4441 28.6718 76.9382 28.708 77.4859C28.7444 78.0374 28.4231 78.418 27.9819 78.591C27.5407 78.764 27.0117 78.8834 26.6355 78.373Z" fill="#3E6D6B"/>
<path d="M82.6355 93.373C82.707 93.3404 82.7767 93.3033 82.8502 93.276C84.1074 92.8095 84.2336 92.576 83.9208 91.2906C84.5516 91.4441 84.6718 91.9382 84.708 92.4859C84.7444 93.0374 84.4231 93.418 83.9819 93.591C83.5407 93.764 83.0117 93.8834 82.6355 93.373Z" fill="#3E6D6B"/>
<path d="M143.493 74.1997C143.447 74.2636 143.406 74.3307 143.356 74.391C142.5 75.4237 142.507 75.6889 143.421 76.6457C142.798 76.8283 142.447 76.4604 142.142 76.0042C141.834 75.5448 141.922 75.0545 142.218 74.6841C142.514 74.3137 142.912 73.9458 143.493 74.1997Z" fill="#3E6D6B"/>
<path d="M227.822 45.873C227.744 45.8859 227.667 45.9038 227.589 45.9111C226.254 46.0364 226.072 46.2292 226.041 47.5517C225.472 47.2403 225.483 46.7319 225.59 46.1935C225.698 45.6513 226.107 45.3668 226.578 45.3139C227.049 45.261 227.59 45.2827 227.822 45.873Z" fill="#3E6D6B"/>
<path d="M290.061 73.8284C290.069 73.7502 290.071 73.6712 290.085 73.594C290.309 72.2719 290.17 72.0459 288.9 71.6742C289.349 71.2045 289.837 71.3475 290.329 71.59C290.825 71.8342 290.994 72.3028 290.923 72.7714C290.852 73.24 290.691 73.7578 290.061 73.8284Z" fill="#3E6D6B"/>
<path d="M319.701 98.2473C319.779 98.2549 319.858 98.2576 319.936 98.2707C321.258 98.4953 321.484 98.3562 321.856 97.0866C322.325 97.5349 322.182 98.0229 321.94 98.5153C321.695 99.0112 321.227 99.1801 320.758 99.1094C320.29 99.0386 319.772 98.8774 319.701 98.2473Z" fill="#3E6D6B"/>
<path d="M200.568 91.3806C200.646 91.3882 200.725 91.3909 200.802 91.404C202.124 91.6286 202.35 91.4895 202.722 90.2199C203.192 90.6682 203.049 91.1562 202.806 91.6486C202.562 92.1445 202.093 92.3134 201.625 92.2427C201.156 92.1719 200.638 92.0107 200.568 91.3806Z" fill="#3E6D6B"/>
<path d="M17.0452 98.5849C17.4955 96.562 18.9184 95.9741 20.2565 96.073C22.468 96.2366 23.4744 97.7413 23.4998 99.2801C23.5117 100.005 23.4909 100.709 22.7401 101.111C21.0902 102.212 18.0132 100.757 17.2403 99.0164C17.1763 98.8721 17.145 98.7129 17.0452 98.5849Z" fill="#5E9896"/>
<path d="M13.1106 58.9861C14.6373 60.3875 14.435 61.9137 13.6802 63.0231C12.4328 64.8566 10.6265 64.9758 9.28119 64.2283C8.64717 63.876 8.04838 63.5063 8.07568 62.6551C7.94649 60.6754 10.7456 58.7384 12.6393 58.9394C12.7963 58.956 12.9498 59.0085 13.1106 58.9861Z" fill="#5E9896"/>
<path d="M17.0453 98.5846C17.3872 98.6105 17.3906 98.9391 17.5329 99.1406C18.523 100.543 19.855 101.278 21.582 101.268C21.977 101.266 22.3365 101.031 22.74 101.11C21.985 102.291 20.5841 102.66 19.1307 102.089C17.5932 101.485 16.7952 100.073 17.0453 98.5846Z" fill="#3A6865"/>
<path d="M199.186 65.639C198.228 67.4764 196.701 67.676 195.434 67.2341C193.34 66.5037 192.757 64.7898 193.131 63.2969C193.307 62.5933 193.51 61.9192 194.339 61.7253C196.218 61.0881 198.813 63.2905 199.109 65.1717C199.134 65.3277 199.123 65.4895 199.186 65.639Z" fill="#5E9896"/>
<path d="M257.421 98.0192C255.398 97.5689 254.81 96.1459 254.909 94.8079C255.072 92.5963 256.577 91.5899 258.116 91.5646C258.841 91.5526 259.545 91.5734 259.947 92.3243C261.048 93.9741 259.593 97.0512 257.852 97.824C257.708 97.888 257.549 97.9193 257.421 98.0192Z" fill="#5E9896"/>
<path d="M199.186 65.6393C198.862 65.5258 198.944 65.2075 198.859 64.976C198.265 63.3654 197.169 62.3101 195.498 61.8732C195.116 61.7732 194.708 61.9068 194.339 61.7256C195.374 60.7805 196.822 60.7871 198.079 61.7146C199.408 62.6957 199.813 64.2668 199.186 65.6393Z" fill="#3A6865"/>
<path d="M257.421 98.0193C257.447 97.6773 257.775 97.674 257.977 97.5317C259.379 96.5416 260.114 95.2096 260.104 93.4826C260.102 93.0875 259.867 92.7281 259.946 92.3246C261.127 93.0796 261.496 94.4805 260.925 95.9338C260.321 97.4714 258.909 98.2694 257.421 98.0193Z" fill="#3A6865"/>
<path d="M13.1106 58.9861C12.9173 59.2693 12.631 59.1079 12.3853 59.1304C10.676 59.2868 9.37289 60.0725 8.51845 61.5733C8.32299 61.9167 8.34642 62.3452 8.07589 62.6549C7.43085 61.4107 7.81208 60.0133 9.03307 59.04C10.3248 58.0103 11.9471 58.0255 13.1106 58.9861Z" fill="#3A6865"/>
<g clip-path="url(#clip0)">
<path d="M39.6404 63.0482C40.6117 58.3095 42.8288 53.8866 45.9087 50.1783C48.9762 46.4849 52.8917 43.4899 57.2801 41.5581C59.7501 40.4668 62.3626 39.7354 65.0384 39.3859C65.0693 39.3819 64.6605 38.8321 64.7219 38.9115C64.4439 38.5521 64.1482 38.2029 63.8499 37.8605C63.551 37.5175 63.25 37.1753 62.9332 36.8487C62.815 36.7268 62.6708 36.5273 62.5088 36.4687C60.0035 35.5725 57.3424 35.1999 54.6886 35.3736C52.0348 35.5473 49.4443 36.2636 47.0759 37.4788C47.03 37.5025 48.1701 38.8959 48.2644 39.0042C48.5633 39.3472 48.8644 39.6894 49.1811 40.016C49.2457 40.0826 49.5135 40.4221 49.6055 40.396C54.5706 38.984 59.6696 38.1006 64.8186 37.7601C66.271 37.6648 67.7253 37.613 69.1813 37.605L66.6517 34.6877C61.7851 36.277 56.7065 37.0193 51.6388 37.6122C50.934 37.6947 50.229 37.7751 49.5237 37.8535C49.1978 37.89 48.8706 37.9389 48.5432 37.9594C48.3766 37.9756 48.2086 37.9667 48.0447 37.9328C47.9885 37.9182 47.9335 37.8995 47.8801 37.8767C47.8567 37.8671 47.7351 37.7751 47.7894 37.8293L49.2528 39.4459C50.4383 40.8656 49.7324 40.2696 49.8379 39.5251C49.8813 39.2035 50.0257 38.9042 50.2501 38.6708C50.8243 38.0776 51.6995 37.9272 52.4761 37.7962L49.9465 34.8789C45.5219 36.1147 41.6489 38.8288 38.9662 42.5734C38.9285 42.6263 39.3136 43.0877 39.2827 43.0478C39.5607 43.4072 39.8565 43.7565 40.1547 44.0988C40.4536 44.4419 40.7547 44.784 41.0714 45.1107C41.1372 45.1785 41.4017 45.5156 41.4958 45.4907C47.9069 43.7886 54.4562 42.6637 61.0659 42.1293C64.3687 41.863 67.679 41.7455 70.9967 41.7767C71.7908 41.7843 72.5865 41.7915 73.3799 41.8279C74.0834 41.8602 74.8142 41.9307 75.4649 42.2218C75.6287 42.2981 75.7863 42.3873 75.9361 42.4885C76.9837 43.1703 73.6298 39.3803 74.1865 40.4615C74.3402 40.741 74.4255 41.0533 74.4351 41.3726C74.4373 41.6031 74.4009 41.952 74.2448 42.1371C74.0821 42.33 73.6176 42.293 73.3631 42.2995C71.9546 42.3287 70.5701 41.9308 69.39 41.1577C69.1079 40.9725 68.8391 40.7675 68.5858 40.5443C68.55 40.5127 68.4408 40.4152 68.5241 40.4877C69.0866 40.9773 70.3711 42.8086 69.8837 42.0549C69.8124 41.9447 69.66 41.7936 69.6731 41.6545C69.6913 41.4624 69.9137 41.3596 70.077 41.3438C70.1907 41.3358 70.3048 41.3514 70.4123 41.3896C70.4584 41.405 70.5013 41.4247 70.5459 41.4441C70.5766 41.4573 70.7276 41.5871 70.6301 41.492L69.5002 40.2656L69.5475 40.3199L68.4931 39.0273C68.4133 38.9176 68.5032 39.0742 68.5039 39.1128C68.5049 39.1632 68.511 39.2068 68.5084 39.2585C68.4948 39.4229 68.4444 39.5821 68.361 39.7242C68.1853 40.0364 67.886 40.2625 67.5817 40.4377C66.9356 40.8097 66.1871 41.0345 65.4818 41.2644C64.0328 41.7367 62.5498 42.0942 61.0655 42.4343C58.1208 43.1089 55.0981 43.6947 52.3546 45.0121C50.8472 45.7359 49.4685 46.6975 48.3337 47.9345C48.2329 48.0443 49.4134 49.335 49.5222 49.4599C49.8211 49.8029 50.1221 50.1451 50.4389 50.4717C50.4969 50.5315 50.7845 50.8838 50.8633 50.8517C53.1107 49.9359 55.2531 48.7787 57.253 47.4003C57.3247 47.3509 56.1599 45.9845 56.0645 45.8749C55.7656 45.5319 55.4645 45.1897 55.1478 44.8631C55.068 44.7808 54.8415 44.4748 54.7234 44.4831C50.1509 44.8029 45.8418 47.2841 43.2558 51.0861C43.2186 51.1408 43.6016 51.5984 43.5723 51.5605C43.8504 51.9199 44.1461 52.2692 44.4443 52.6115C44.5454 52.7275 45.6774 54.0885 45.7854 54.0034L55.0805 46.6816C55.1627 46.6169 53.9898 45.2684 53.892 45.1562C53.5931 44.8131 53.2921 44.471 52.9753 44.1443C52.9131 44.0802 52.6382 43.7359 52.5509 43.7643C48.6191 45.0467 45.2079 47.7668 43.0253 51.2898C42.4003 52.3 41.8807 53.3723 41.4747 54.4896C41.4463 54.5676 41.7993 54.9746 41.7912 54.9641C42.0692 55.3235 42.3649 55.6727 42.6632 56.015C42.7698 56.1374 43.874 57.4972 44.0043 57.4069C47.9848 54.6438 52.1633 52.1805 56.5056 50.0369C57.7399 49.4281 58.9866 48.8458 60.2457 48.2899L57.7161 45.3727C55.0635 48.9612 51.3123 51.5764 47.038 52.8175L49.5676 55.7347C53.0345 52.7533 57.2806 50.8345 61.8011 50.2062C63.0879 50.0292 64.3871 49.96 65.6853 49.9995L63.1557 47.0822C58.5958 49.4336 53.6558 50.9513 48.5668 51.5644L51.0964 54.4816C56.0924 51.4621 61.5868 49.3667 67.3188 48.295L64.7892 45.3777C63.1108 47.3674 60.9038 48.8366 58.4257 49.6139L60.9553 52.5311C66.1529 50.7132 71.3815 48.9888 76.6412 47.3579L74.1116 44.4407L74.4816 47.9979C74.527 48.4336 77.001 50.9261 77.0112 50.9151C78.7121 49.0708 79.6931 46.6717 79.7736 44.1588C79.7832 43.813 79.8176 43.5451 79.6093 43.2563C78.9974 42.4306 78.3296 41.6482 77.6106 40.9147C77.2003 40.4859 76.7971 40.1247 76.1774 40.3382C74.9771 40.7518 75.2451 42.4876 75.3633 43.4525C75.5597 45.0136 75.9843 46.5369 76.6235 47.9734C76.7287 48.2119 77.0036 48.4934 77.1591 48.6836C77.419 49.0014 77.6848 49.3141 77.9566 49.6216C78.0525 49.7307 79.1187 50.8365 79.1282 50.8208C79.7981 49.7123 80.305 48.5123 80.6331 47.2581L78.1284 44.4107C78.7198 46.044 79.031 47.7664 79.0487 49.5044C79.0503 49.6288 79.3244 49.9261 79.3652 49.9788C79.6432 50.3382 79.9389 50.6874 80.2372 51.0298C80.5361 51.3728 80.8372 51.715 81.1539 52.0416C81.1989 52.088 81.5793 52.4129 81.5783 52.4216L81.9164 49.5606L79.4117 46.7132C80.2392 48.0304 80.1969 49.6678 79.6695 51.0921C79.1106 52.6014 77.9999 53.7959 76.7448 54.7621C75.3996 55.7977 73.8958 56.617 72.4371 57.4762C70.7524 58.4685 69.0669 59.4593 67.3805 60.4486C65.4751 61.5663 63.5686 62.6821 61.6609 63.796L64.1905 66.7132C67.3813 63.0457 71.0736 59.8514 75.1573 57.2256L72.6278 54.3083L68.1708 59.6895C68.0666 59.8153 69.2456 61.0844 69.3593 61.2149C69.4535 61.323 70.6314 62.6756 70.7004 62.6068C74.0255 59.2943 77.1052 55.742 79.9149 51.9785C80.0213 51.836 78.8458 50.5902 78.7264 50.4531C78.6332 50.3461 77.4462 48.9973 77.3853 49.0612C74.082 52.5289 70.9915 56.1949 68.1308 60.0391C67.3201 61.1292 66.5284 62.2331 65.7556 63.3509C65.7182 63.405 66.102 63.864 66.0721 63.8254C66.3502 64.1848 66.6459 64.534 66.9441 64.8763C67.243 65.2194 67.5441 65.5615 67.8608 65.8882C67.9248 65.9541 68.1946 66.295 68.2852 66.2682C70.2259 65.6952 72.014 64.692 73.5175 63.3327L70.9879 60.4154L68.4853 65.1339C68.4512 65.1982 68.8227 65.6353 68.8018 65.6083C69.0799 65.9677 69.3756 66.3169 69.6738 66.6593C69.7676 66.7669 70.9492 68.1181 71.0149 68.0512C73.2484 65.7786 75.3061 63.3382 77.17 60.7512L74.6404 57.8339C73.5351 60.6424 71.8424 63.1796 69.6766 65.2741C69.5381 65.408 72.1187 68.2699 72.2062 68.1913L77.5242 63.4138L74.9946 60.4965C74.2282 62.5371 73.0568 64.3999 71.5516 65.9716C71.4527 66.075 72.6332 67.3743 72.7401 67.497C73.039 67.8401 73.3401 68.1822 73.6568 68.5088C73.7173 68.5713 73.9972 68.9188 74.0812 68.8888C74.3721 68.7881 74.6382 68.6258 74.8613 68.4129C75.0844 68.2 75.2595 67.9415 75.3746 67.6548C75.4049 67.5811 75.0458 67.1645 75.0581 67.1803C74.7801 66.8209 74.4843 66.4717 74.1861 66.1294C74.0848 66.0131 72.9539 64.6522 72.845 64.7375C68.3651 68.2503 63.4859 71.2163 58.3098 73.5731C56.8351 74.2438 55.339 74.8634 53.8215 75.432C53.8064 75.4376 54.9122 76.8451 55.01 76.9574C55.3089 77.3004 55.61 77.6426 55.9267 77.9692C56.0044 78.0493 56.2364 78.3603 56.3511 78.3492C57.8512 78.2046 59.056 79.2426 60.4856 79.4627C61.5598 79.628 62.9874 79.3028 63.0975 77.9946C63.156 77.3006 62.7832 76.6475 62.4049 76.0981C61.5813 74.9022 60.5739 73.8109 59.5752 72.7629C58.3625 71.4903 57.1474 70.22 55.9301 68.9518L51.8095 64.6437C51.8784 64.7157 51.3964 64.2308 51.3851 64.2637C50.7415 66.1312 50.4998 68.1147 50.6758 70.0831L53.2054 73.0003L51.4175 64.9003C51.3831 64.7444 51.1819 64.5304 51.101 64.4258C50.823 64.0664 50.5273 63.7172 50.229 63.3749C49.9301 63.0318 49.6291 62.6897 49.3123 62.363C49.2725 62.322 48.8907 61.9733 48.8879 61.983C48.2173 64.287 47.9861 66.6976 48.2065 69.0879C48.219 69.2245 48.4676 69.4907 48.523 69.5623C48.801 69.9217 49.0967 70.2709 49.395 70.6133C49.6939 70.9563 49.9949 71.2985 50.3117 71.6251C50.3611 71.6761 50.7366 71.984 50.7361 72.0051C50.7881 69.9876 50.3351 67.9891 49.4186 66.1932C49.2934 65.9468 49.0521 65.6899 48.8829 65.4829C48.6231 65.1651 48.3573 64.8525 48.0855 64.5449C47.8415 64.2675 47.5954 63.991 47.3383 63.7258C47.2994 63.6857 46.9191 63.331 46.9139 63.3458C46.2361 65.2671 45.8352 67.276 45.7234 69.3113L48.253 72.2286C48.2683 69.6685 47.7752 67.1311 46.8025 64.7648C46.7071 64.5314 46.4149 64.2357 46.2668 64.0546C46.007 63.7368 45.7412 63.4241 45.4694 63.1166C45.2254 62.8392 44.9794 62.5626 44.7222 62.2974C44.6825 62.2564 44.3008 61.9071 44.2978 61.9174C43.9738 63.0154 44.0797 64.1964 44.5939 65.2185C44.7141 65.4633 44.9635 65.7257 45.1295 65.9287C45.3894 66.2465 45.6552 66.5592 45.927 66.8667C46.171 67.1441 46.417 67.4207 46.6742 67.6859C46.7317 67.7452 47.0208 68.0984 47.0986 68.0659L63.3788 61.2765L68.0505 59.3283C68.0756 59.3178 66.9582 57.9133 66.862 57.8029C66.5631 57.4598 66.2621 57.1177 65.9453 56.791C65.8808 56.7245 65.6126 56.3847 65.5209 56.411L55.8065 59.1928C55.7703 59.2031 56.1828 59.7445 56.123 59.6672C56.401 60.0266 56.6968 60.3758 56.995 60.7182C57.2939 61.0612 57.595 61.4034 57.9117 61.73C58.017 61.8386 58.1849 62.0778 58.3361 62.11L59.5577 62.3706L57.0281 59.4534C56.7374 60.6096 56.2299 61.6996 55.5328 62.665C55.495 62.7174 55.8805 63.1797 55.8493 63.1394C56.1273 63.4988 56.4231 63.848 56.7213 64.1904C57.0202 64.5334 57.3213 64.8756 57.638 65.2022C57.7361 65.3033 57.9192 65.5628 58.0624 65.5822C60.8136 65.9548 63.4593 63.3412 63.135 60.5714C63.1185 60.4309 62.8787 60.1748 62.8185 60.097C62.5405 59.7376 62.2448 59.3884 61.9465 59.046C61.6476 58.703 61.3465 58.3608 61.0298 58.0342C60.9703 57.9729 60.6106 57.6983 60.6054 57.6542C60.9298 60.424 58.284 63.0375 55.5328 62.665L58.0624 65.5822C58.7595 64.6169 59.2669 63.5269 59.5577 62.3706C59.5803 62.2812 59.2443 61.9002 59.2412 61.8962C58.9632 61.5368 58.6675 61.1876 58.3692 60.8452C58.0703 60.5022 57.7693 60.16 57.4525 59.8334C57.3472 59.7248 57.1793 59.4856 57.0281 59.4534L55.8065 59.1928L58.3361 62.11L68.0505 59.3283L65.5209 56.411L49.2407 63.2004L44.569 65.1487L47.0737 67.9961C46.5955 67.0118 46.5075 65.8817 46.8274 64.8346L44.3227 61.9872C45.2688 64.311 45.745 66.8008 45.7234 69.3113C45.7225 69.4328 46.0025 69.7374 46.0399 69.7858C46.3179 70.1452 46.6136 70.4944 46.9119 70.8367C47.2108 71.1798 47.5118 71.5219 47.8286 71.8486C47.8765 71.898 48.2539 72.2114 48.253 72.2286C48.3648 70.1932 48.7657 68.1844 49.4435 66.263L46.9388 63.4156C47.8278 65.1698 48.2637 67.1203 48.2065 69.0879L50.7361 72.0051C50.5157 69.6149 50.7469 67.2043 51.4175 64.9003L48.8879 61.983L50.6758 70.0831C50.7102 70.239 50.9114 70.453 50.9923 70.5575C51.2703 70.9169 51.566 71.2661 51.8643 71.6085C52.1632 71.9515 52.4643 72.2937 52.781 72.6203C52.8382 72.6793 53.2019 72.9609 53.2054 73.0003C53.0294 71.0319 53.2711 69.0485 53.9147 67.1809L53.4903 66.8009L60.041 73.6498L60.8334 74.4783C60.9566 74.6071 61.0784 74.7376 61.2032 74.8649L61.3089 74.9754L60.0996 73.5777C60.0477 73.4805 60.1241 73.6201 60.1379 73.6434C60.4554 74.1812 60.6972 74.7842 60.5019 75.4124C60.1743 76.4663 58.9594 76.687 58.006 76.5531C56.5559 76.3494 55.3383 75.2857 53.8215 75.432L56.3511 78.3492C61.6745 76.3509 66.7429 73.7246 71.4498 70.5254C72.7902 69.6136 74.0984 68.6567 75.3746 67.6548L72.845 64.7375C72.7299 65.0242 72.5548 65.2828 72.3317 65.4957C72.1086 65.7086 71.8425 65.8709 71.5516 65.9716L74.0812 68.8888C75.5864 67.3171 76.7578 65.4544 77.5242 63.4138C77.5531 63.3368 77.1986 62.9275 77.2077 62.9393C76.9297 62.5799 76.634 62.2307 76.3357 61.8884C76.2391 61.7775 75.0804 60.4195 74.9946 60.4965L69.6766 65.2741L72.2062 68.1913C74.372 66.0969 76.0647 63.5596 77.17 60.7512C77.1997 60.6758 76.8428 60.2629 76.8535 60.2767C76.5755 59.9173 76.2798 59.5681 75.9815 59.2258C75.8888 59.1194 74.6637 57.8016 74.6404 57.8339C72.7765 60.4209 70.7188 62.8614 68.4853 65.1339L71.0149 68.0511L73.5175 63.3327C73.5517 63.2684 73.1802 62.8313 73.201 62.8582C72.923 62.4988 72.6273 62.1496 72.329 61.8073C72.2326 61.6966 71.0727 60.3388 70.9879 60.4154C69.4844 61.7748 67.6964 62.7779 65.7556 63.3509L68.2852 66.2682C71.0118 62.3268 73.9741 58.5555 77.1559 54.9751C78.0583 53.9603 78.978 52.9614 79.9149 51.9785L77.3853 49.0612C74.5756 52.8248 71.4959 56.377 68.1708 59.6895L70.7004 62.6068L75.1573 57.2256C75.2615 57.0998 74.0826 55.8308 73.9688 55.7002C73.8584 55.5735 72.7713 54.216 72.6278 54.3083C68.544 56.9341 64.8517 60.1285 61.6609 63.796C61.5582 63.914 62.7381 65.1936 62.8494 65.3214C63.1483 65.6644 63.4494 66.0066 63.7661 66.3332C63.817 66.3857 64.1278 66.7499 64.1905 66.7132C67.6111 64.7159 71.0281 62.7124 74.4416 60.7027C75.9478 59.8158 77.5007 58.9738 78.918 57.9453C80.2014 57.014 81.3865 55.8708 82.0412 54.3984C82.7369 52.8337 82.825 50.9767 81.8915 49.4907C81.5191 48.898 81.0183 48.3653 80.5584 47.8425C80.3144 47.5651 80.0684 47.2886 79.8112 47.0233C79.7663 46.977 79.3858 46.6521 79.3868 46.6433L79.0487 49.5044L81.5783 52.4216C81.5531 50.6345 81.225 48.8647 80.6082 47.1882C80.5262 46.9632 80.2098 46.6458 80.0726 46.478C79.8128 46.1602 79.547 45.8475 79.2752 45.54C79.0312 45.2626 78.7851 44.986 78.528 44.7208C78.4875 44.6791 78.1054 44.3337 78.1035 44.3408C77.7754 45.595 77.2685 46.795 76.5986 47.9035L79.1033 50.7509C78.4101 49.1834 77.9812 47.511 77.834 45.8021C77.7762 45.1232 77.7068 44.3281 78.0996 43.7292C78.253 43.4941 78.4845 43.3214 78.7527 43.2416C78.8872 43.1995 79.0283 43.1826 79.1689 43.1919C79.4324 43.2127 79.6751 43.4683 79.2914 43.072L77.3204 40.7676L77.3756 40.8419L77.2415 40.609C77.3179 43.3396 76.3273 45.9918 74.4816 47.9979L77.0112 50.9151L76.6412 47.3579C76.6268 47.2195 76.3824 46.958 76.3247 46.8835C76.0467 46.5241 75.751 46.1749 75.4527 45.8325C75.1538 45.4895 74.8528 45.1473 74.536 44.8207C74.4729 44.7556 74.2007 44.4131 74.1116 44.4407C68.8528 46.0713 63.6242 47.7957 58.4257 49.6139C58.4173 49.6168 59.5152 51.0257 59.6142 51.1393C59.9131 51.4823 60.2141 51.8245 60.5309 52.1511C60.5937 52.216 60.8666 52.5589 60.9553 52.5311C63.4334 51.7538 65.6404 50.2846 67.3188 48.295C67.4225 48.172 66.2432 46.8991 66.1303 46.7696C65.8314 46.4265 65.5304 46.0844 65.2136 45.7577C65.1427 45.6846 64.8927 45.3584 64.7892 45.3777C59.0572 46.4495 53.5628 48.5448 48.5668 51.5644C48.5065 51.6008 49.661 52.9815 49.7553 53.0898C50.0542 53.4328 50.3553 53.775 50.672 54.1016C50.7478 54.1798 50.9847 54.4951 51.0964 54.4816C56.1854 53.8685 61.1254 52.3508 65.6853 49.9995C65.7308 49.976 64.5911 48.5824 64.4968 48.4741C64.1979 48.131 63.8968 47.7889 63.5801 47.4622C63.4917 47.3711 63.2863 47.0861 63.1557 47.0822C58.5937 46.9578 54.0921 48.1516 50.1857 50.522C49.0749 51.1981 48.0221 51.9659 47.038 52.8175C46.9495 52.894 48.1264 54.2279 48.2265 54.3429C48.5254 54.686 48.8265 55.0281 49.1432 55.3547C49.2076 55.4211 49.4762 55.7611 49.5676 55.7347C53.8419 54.4937 57.593 51.8784 60.2457 48.2899C60.2838 48.2383 59.8973 47.7742 59.9292 47.8155C59.6512 47.4561 59.3555 47.1069 59.0572 46.7645C58.7583 46.4214 58.4573 46.0793 58.1405 45.7527C58.0841 45.6945 57.7914 45.3393 57.7161 45.3727C53.2875 47.33 49.0091 49.6138 44.916 52.2054C43.7529 52.9423 42.6058 53.7037 41.4747 54.4896L44.0043 57.4069C45.4245 53.5067 48.2559 50.1822 51.8406 48.1206C52.8684 47.5303 53.9542 47.0481 55.0805 46.6816L52.5509 43.7643L43.2558 51.0861L45.7854 54.0034C48.3714 50.2014 52.6805 47.7202 57.253 47.4003L54.7234 44.4831C52.7235 45.8615 50.5811 47.0186 48.3337 47.9345L50.8633 50.8517C53.9354 47.503 58.5103 46.5038 62.7544 45.5427C64.9563 45.044 67.1723 44.5462 69.284 43.7305C70.007 43.4512 71.4445 42.7807 70.9416 41.7604C70.6543 41.1774 70.1193 40.6711 69.7001 40.1863C69.2593 39.6767 68.8173 39.0787 68.2693 38.677C68.0229 38.4965 67.6114 38.3089 67.3185 38.4963C66.8593 38.7903 67.4856 39.4176 67.6877 39.6932C68.4677 40.7437 69.3181 41.7396 70.233 42.6738C71.0592 43.5264 71.9792 44.2344 73.0813 44.687C74.1098 45.1152 75.2259 45.2878 76.335 45.1902C76.4362 45.1806 76.6398 45.1983 76.7204 45.1419C76.7989 45.0869 76.8463 44.9152 76.8779 44.8256C76.9635 44.5729 76.986 44.3029 76.9436 44.0394C76.8459 43.3748 76.4237 42.8391 76.0176 42.3305C75.4872 41.6662 74.9298 41.0239 74.3457 40.4038C74.0714 40.1122 73.7882 39.8031 73.4519 39.5813C72.9273 39.2352 72.3131 39.0626 71.6964 38.9805C70.2966 38.794 68.838 38.8546 67.4286 38.8545C64.4613 38.8542 61.4973 38.9734 58.5364 39.2121C52.6671 39.6847 46.8443 40.6246 41.1231 42.0228C40.4023 42.1991 39.6833 42.3826 38.9662 42.5734L41.4958 45.4907C44.1784 41.7461 48.0515 39.032 52.4761 37.7962C52.512 37.7862 52.0996 37.2442 52.1596 37.3217C51.8815 36.9623 51.5858 36.6131 51.2875 36.2708C50.9886 35.9277 50.6876 35.5856 50.3709 35.2589C50.2987 35.1845 50.0522 34.8611 49.9465 34.8789C48.7738 35.0767 46.9501 35.596 47.333 37.1834C47.4306 37.5882 47.7105 37.9106 47.964 38.228C48.6156 39.0441 49.2892 39.9427 50.1005 40.605C50.7091 41.1017 51.6379 40.8175 52.3449 40.738C55.9898 40.3283 59.6377 39.8919 63.2344 39.1578C65.2445 38.754 67.23 38.2356 69.1813 37.605C69.2184 37.5929 68.8057 37.0542 68.8648 37.1306C68.5868 36.7712 68.2911 36.422 67.9928 36.0796C67.6939 35.7365 67.3929 35.3944 67.0761 35.0678C66.991 34.9799 66.7779 34.6869 66.6517 34.6878C61.4917 34.7194 56.3493 35.296 51.3093 36.4083C49.8879 36.7227 48.4767 37.0795 47.0759 37.4788L49.6055 40.396C51.9739 39.1809 54.5644 38.4645 57.2182 38.2908C59.872 38.1171 62.5331 38.4898 65.0384 39.3859L62.5088 36.4687C57.7322 37.0851 53.1753 38.9733 49.2627 41.7795C45.3659 44.5745 42.0985 48.2716 39.8507 52.5223C38.5816 54.9146 37.659 57.4767 37.1108 60.131C37.0913 60.2259 37.4187 60.5943 37.4273 60.6054C37.7053 60.9648 38.001 61.314 38.2993 61.6564C38.5982 61.9994 38.8992 62.3416 39.216 62.6682C39.2578 62.7114 39.6401 63.0496 39.6404 63.0482H39.6404Z" fill="#6BB2B1"/>
<path d="M85.6659 51.9737C86.7608 59.0609 85.1481 65.5002 81.0703 71.3489C80.9055 71.5853 80.6946 71.7928 80.6259 72.0966C80.8313 72.4486 81.2684 72.6645 81.264 73.1468C81.0419 73.6174 80.5996 73.8854 80.2409 74.2197C79.0123 75.3649 78.0701 76.7094 77.3399 78.2146L77.2928 78.2277C77.2296 78.274 77.1539 78.3 77.0758 78.3023C76.9976 78.3046 76.9206 78.2832 76.8547 78.2408C76.1062 78.2453 75.6367 77.6752 75.0138 77.3368C73.1591 78.6366 71.1461 79.692 69.024 80.4772C65.3294 81.8502 61.3677 82.3418 57.4516 81.9134C52.5649 81.3897 48.1646 79.644 44.2742 76.6301C41.3538 74.3677 39.0427 71.577 37.2862 68.3216C37.1353 68.042 37.0126 67.7444 36.6875 67.6168C36.3377 67.696 36.0691 67.631 35.9582 67.2357C35.4275 65.3439 34.4923 63.6453 33.4724 61.9866C33.3528 61.7921 33.1948 61.5911 33.3108 61.3308C33.4537 60.6898 34.0401 60.6519 34.5569 60.4485C34.5031 59.9245 34.4539 59.4065 34.3961 58.8895C33.9499 54.9044 34.4419 51.0302 35.7576 47.2536C35.7897 47.1811 35.8281 47.1115 35.8722 47.0457C37.0526 44.927 38.6016 43.0892 40.3106 41.4013C43.9986 37.7586 48.4325 35.7397 53.6123 35.3445C55.3538 35.2085 57.0759 35.1927 58.8066 35.3753C59.0161 35.3974 59.2285 35.3948 59.4157 35.511C59.6266 35.7077 59.5392 35.9407 59.4949 36.1697C59.202 37.6845 59.3934 38.0956 60.7307 38.8258C60.8451 38.8883 60.9576 38.9539 61.0668 39.0245C61.2261 39.1162 61.3911 39.1974 61.5608 39.2675C62.0857 39.4684 62.5299 39.3071 62.933 38.9594C63.5633 38.6456 63.8819 38.1537 63.8313 37.431C63.8014 37.1927 63.8436 36.9509 63.9524 36.7371C64.4267 36.3476 64.8667 36.6898 65.2824 36.8428C67.9935 37.8411 70.5175 39.2179 72.9378 40.7852C76.9171 43.362 80.6088 46.2981 83.8798 49.7499C84.5357 50.4421 85.0936 51.2137 85.6659 51.9737Z" fill="#6BB2B2"/>
<path d="M59.4581 35.5947C58.3249 35.6735 57.2129 35.3967 56.0772 35.4206C53.252 35.48 50.485 35.8327 47.8177 36.8143C45.5732 37.6404 43.5713 38.8663 41.7364 40.4046C39.6378 42.164 37.938 44.2576 36.4164 46.5173C36.2783 46.7224 36.1925 47.0159 35.8723 47.0456C36.6478 44.6537 37.8617 42.4905 39.3713 40.5026C43.661 34.8536 49.2911 31.3519 56.3008 30.3602C65.1205 29.1124 72.6781 31.8016 78.9228 38.1924C79.1423 38.417 79.3252 38.6845 79.6699 38.8693C80.1232 38.6953 80.6017 38.2676 81.1651 38.674C81.241 38.6986 81.3111 38.7385 81.371 38.7913C81.4309 38.8442 81.4794 38.9088 81.5135 38.9812C82.4254 40.7052 83.6608 42.1821 84.9852 43.592C85.057 43.6699 85.12 43.7555 85.173 43.8473C85.3004 44.8277 85.1927 44.9978 83.9289 45.7376C84.6846 47.7534 85.4063 49.8017 85.666 51.9736C85.0154 51.7866 84.7992 51.1473 84.4268 50.6986C83.3782 49.4346 82.1965 48.304 81.0041 47.1934C79.9704 46.2305 78.8517 45.354 77.7361 44.4787C75.6975 42.8649 73.5593 41.3822 71.3345 40.0395C69.2963 38.8206 67.1908 37.7552 64.9627 36.9387C64.6703 36.8315 64.3813 36.6826 64.0525 36.7097C63.5864 36.2562 63.2581 35.6535 62.6246 35.3816C61.7319 34.9167 60.8672 34.9061 60.0281 35.5188C59.8631 35.6393 59.674 35.7704 59.4581 35.5947Z" fill="#69A3A1"/>
<path d="M77.3399 78.2146C77.245 77.5615 77.6934 77.1146 77.9912 76.6392C78.8516 75.2658 79.9106 74.0625 81.264 73.1469C81.4731 73.5313 81.4069 73.949 81.2539 74.2959C80.4566 76.1032 79.2732 77.5426 77.3399 78.2146Z" fill="#518987"/>
<path d="M33.3107 61.3308C34.4613 63.218 35.6268 65.0999 36.1615 67.2819C36.2434 67.6163 36.4604 67.5921 36.6886 67.6171C36.0963 67.6792 35.6008 67.5174 35.2729 66.9886C34.4008 65.5823 33.5726 64.1551 33.0896 62.5535C32.9513 62.095 32.937 61.6839 33.3107 61.3308Z" fill="#548B8A"/>
<path d="M85.1729 43.8473C84.6281 43.6447 84.2916 43.1798 83.9511 42.7648C82.9026 41.4871 81.8241 40.2222 81.1651 38.674C81.8884 38.8423 82.5248 39.2722 82.953 39.8816C83.8358 41.1193 84.6221 42.4186 85.1729 43.8473Z" fill="#4C7A77"/>
<path d="M76.8547 78.2408C76.9248 78.2692 77 78.2828 77.0755 78.2805C77.151 78.2782 77.2253 78.2602 77.2935 78.2275C77.1528 78.2812 76.9983 78.2859 76.8547 78.2408Z" fill="#518987"/>
<path d="M46.0217 66.949C45.9125 64.8926 47.5155 63.9735 48.8238 63.8964C50.4673 63.7996 51.814 64.2889 52.8048 65.645C52.6816 67.4269 51.3535 68.9563 49.6066 69.1448C48.2174 69.2947 47.2216 68.4755 46.3832 67.4642C46.2521 67.306 46.1738 67.0992 46.0217 66.949Z" fill="#4D8583"/>
<path d="M46.978 45.7962C47.4283 43.7733 48.8512 43.1854 50.1893 43.2844C52.4009 43.4479 53.4073 44.9526 53.4326 46.4914C53.4445 47.2166 53.4238 47.92 52.6729 48.322C51.023 49.4238 47.946 47.9682 47.1732 46.2277C47.1091 46.0834 47.0778 45.9242 46.978 45.7962Z" fill="#4E8684"/>
<path d="M68.7791 65.3457C67.246 63.4426 68.4873 60.153 71.2288 59.9382C71.5176 59.9156 71.8149 59.6156 72.1126 59.9185C73.1868 60.8434 73.7331 62.0642 73.883 63.4324C74.0056 64.5512 72.7896 65.667 71.5071 65.7077C70.5825 65.7371 69.6792 65.5376 68.7791 65.3457Z" fill="#4E8684"/>
<path d="M68.7791 65.3457C69.4001 65.0425 69.9932 65.3725 70.5887 65.4528C71.5826 65.5867 72.4502 65.474 73.1814 64.6871C73.6674 64.164 73.8089 63.6119 73.6144 62.949C73.3907 62.1862 73.1041 61.4537 72.6363 60.7999C72.4382 60.5231 72.2858 60.2134 72.1126 59.9186C74.0748 59.9473 75.7922 61.3448 76.0048 63.277C76.1924 64.9812 75.1305 66.7151 73.2445 67.0581C71.4496 67.3845 69.9515 66.7491 68.7791 65.3457Z" fill="#3A6865"/>
<path d="M46.0217 66.949C46.2751 66.9383 46.3701 67.1244 46.4953 67.3015C46.8822 67.8482 47.4118 68.2289 47.9801 68.5711C48.9697 69.1669 49.9331 69.0654 50.8661 68.4756C51.6851 67.9578 52.3418 67.3044 52.5199 66.2781C52.5572 66.0628 52.5927 65.8018 52.8047 65.6451C54.1433 67.3929 52.9973 69.8083 51.0477 70.3971C48.7553 71.0894 46.5831 69.7784 46.1162 67.4119C46.0858 67.2574 46.0532 67.1033 46.0217 66.949Z" fill="#3A6865"/>
<path d="M59.4581 35.5947C59.7271 35.5931 59.858 35.3639 60.0525 35.2372C60.9634 34.644 61.8757 34.6727 62.7808 35.2582C62.7775 35.4582 62.9288 35.5915 62.9973 35.761C63.5236 37.0627 63.2959 37.8262 62.1396 38.5998C61.7898 38.8338 61.4462 39.0805 61.0446 39.2236C60.7666 39.0862 60.4811 38.9623 60.2121 38.8091C59.2714 38.2736 58.9215 37.3874 59.228 36.3435C59.3015 36.093 59.3812 35.8443 59.4581 35.5947Z" fill="#4F8685"/>
<path d="M74.9292 44.9772C75.9426 44.9769 76.5543 45.5839 76.5491 46.5847C76.544 47.552 75.939 48.1577 74.9769 48.1586C74.0607 48.1596 73.2341 47.4299 73.2327 46.5939C73.231 45.5807 73.9394 44.8656 74.9292 44.9772Z" fill="#508A88"/>
<path d="M46.9781 45.7961C47.32 45.822 47.3234 46.1507 47.4657 46.3522C48.4558 47.7542 49.7878 48.4899 51.5148 48.4795C51.9098 48.4771 52.2693 48.2425 52.6727 48.322C51.9177 49.5027 50.5169 49.8713 49.0635 49.3005C47.5259 48.6967 46.7279 47.2841 46.9781 45.7961Z" fill="#3A6865"/>
<path d="M45.2142 55.8135C44.5913 56.1081 44.0477 55.9687 43.5642 55.5074C43.062 55.0282 43.0291 54.4199 43.1967 53.817C43.4538 52.8924 44.6861 52.6011 45.5259 53.232C46.0997 54.1751 45.5698 54.9836 45.2142 55.8135Z" fill="#4F8685"/>
<path d="M58.4145 77.8991C57.581 77.8963 57.0616 77.3932 57.0696 76.5961C57.0776 75.7939 57.6136 75.2297 58.3859 75.2106C59.0461 75.1942 59.8565 75.9706 59.8627 76.6255C59.8691 77.3076 59.1937 77.9016 58.4145 77.8991Z" fill="#4E8684"/>
<path d="M61.0446 39.2235C61.3544 38.6645 61.9676 38.4974 62.443 38.1586C62.9946 37.7654 63.1436 37.2506 63.0298 36.6471C62.9679 36.3186 62.9262 35.9679 62.7353 35.6701C62.6428 35.5259 62.6098 35.3782 62.7807 35.2583C63.3889 35.579 63.8764 36.0065 64.0523 36.7096C64.0527 37.0196 64.063 37.3299 64.0513 37.6395C64.02 38.4691 63.7718 38.7905 62.9419 39.1014C62.5136 39.4465 62.0136 39.4322 61.5081 39.3898C61.3302 39.4001 61.1866 39.3141 61.0446 39.2235Z" fill="#3E6D6B"/>
<path d="M59.116 62.4792C58.5035 62.1269 58.3308 61.6164 58.6105 60.9847C58.9259 60.2724 59.5201 60.0105 60.2496 60.2623C60.2985 60.3129 60.3502 60.3607 60.4045 60.4054L60.4012 60.3968C60.8005 60.7966 60.8875 61.2777 60.6034 61.7456C60.2782 62.2814 59.8031 62.6274 59.116 62.4792Z" fill="#4E8684"/>
<path d="M62.2963 48.3425C61.509 48.5872 60.9071 48.3452 60.6436 47.678C60.3849 47.0226 60.6273 46.4516 61.3203 46.0843C62.4814 46.3348 63.031 47.3406 62.4599 48.1694L62.4622 48.161C62.3973 48.2118 62.3412 48.2732 62.2963 48.3425Z" fill="#4F8685"/>
<path d="M59.116 62.4791C59.1874 62.4465 59.2572 62.4094 59.3306 62.3821C60.5879 61.9156 60.7141 61.6821 60.4012 60.3967C61.0321 60.5501 61.1522 61.0443 61.1884 61.592C61.2249 62.1435 60.9036 62.5241 60.4624 62.6971C60.0212 62.8701 59.4922 62.9894 59.116 62.4791Z" fill="#3E6D6B"/>
<path d="M62.4599 48.1695C62.7059 47.5941 62.5973 47.1224 62.0825 46.7409C61.8141 46.5421 61.6368 46.2315 61.3206 46.0844C61.955 45.7401 62.4719 45.8729 62.9142 46.4939C63.2833 47.0121 63.2503 47.6613 62.8284 48.0749C62.7279 48.1735 62.5941 48.1819 62.4599 48.1695Z" fill="#3E6D6B"/>
<path d="M45.2142 55.8135C45.1017 55.776 44.8879 55.7486 45.0335 55.5878C45.3344 55.2555 45.4206 54.8566 45.5322 54.4475C45.627 54.0997 45.7014 53.794 45.4224 53.494C45.3477 53.4137 45.4339 53.2985 45.5258 53.2321C46.4614 54.0481 46.5367 54.9821 45.7235 55.6253C45.5754 55.7362 45.3985 55.8016 45.2142 55.8135Z" fill="#3E6D6B"/>
<path d="M56.4608 52.9286C56.8268 52.9333 57.0458 53.0474 57.059 53.3767C57.0739 53.7471 56.85 53.8868 56.5112 53.8845C56.2135 53.8825 55.9937 53.7694 55.9795 53.4387C55.9635 53.0649 56.1952 52.9365 56.4608 52.9286Z" fill="#508A88"/>
<path d="M39.9372 60.7496C39.9537 61.0119 39.6246 61.3258 39.3588 61.3023C39.0966 61.2792 38.943 61.0968 38.895 60.8504C38.847 60.6044 39.1639 60.2541 39.4154 60.2781C39.7066 60.3059 39.8641 60.5062 39.9372 60.7496Z" fill="#548B8A"/>
<path d="M53.5781 37.221C53.5133 37.5307 53.3744 37.7634 53.0712 37.7508C53.0119 37.7523 52.9529 37.7412 52.8981 37.7183C52.8433 37.6954 52.7939 37.6612 52.753 37.6179C52.7122 37.5746 52.6809 37.5232 52.6611 37.4669C52.6413 37.4107 52.6335 37.3509 52.6382 37.2915C52.639 37.0037 52.7058 36.7413 53.047 36.7461C53.3432 36.7502 53.4794 36.9893 53.5781 37.221Z" fill="#548B8A"/>
<path d="M75.4017 54.5321C75.2766 54.8157 75.1051 55.0499 74.7546 54.9461C74.5531 54.8864 74.3682 54.7278 74.3953 54.4821C74.4091 54.3888 74.4505 54.3018 74.5141 54.2324C74.5777 54.163 74.6606 54.1143 74.752 54.0927C75.106 53.9977 75.2796 54.219 75.4017 54.5321Z" fill="#518987"/>
<path d="M61.508 39.3899C61.9527 39.1274 62.4894 39.3263 62.9417 39.1014C62.5043 39.5983 62.1629 39.667 61.508 39.3899Z" fill="#4D8583"/>
<path d="M62.2963 48.3427C62.3517 48.2822 62.407 48.2217 62.4623 48.1611C62.453 48.2034 62.4327 48.2424 62.4036 48.2743C62.3744 48.3061 62.3374 48.3297 62.2963 48.3427Z" fill="#3E6D6B"/>
<path d="M60.4045 60.4054L60.2494 60.2622C60.2868 60.2672 60.3217 60.2836 60.3495 60.3092C60.3772 60.3348 60.3964 60.3684 60.4045 60.4054Z" fill="#3E6D6B"/>
</g>
<g clip-path="url(#clip1)">
<path d="M267.123 71.4294C267.224 71.3881 267.266 71.2892 267.329 71.2118C267.682 70.7732 268.031 70.3313 268.383 69.8912C268.422 69.8419 268.45 69.7785 268.519 69.7604C268.532 69.7573 268.545 69.7541 268.558 69.7512C268.581 69.7392 268.603 69.7238 268.622 69.7055C269.065 68.8878 269.418 68.0258 269.821 67.1889C269.827 67.1809 269.83 67.171 269.83 67.1611C269.829 67.1511 269.825 67.1417 269.818 67.1344C269.869 67.1583 269.802 67.1834 269.819 67.2081C269.627 68.375 269.365 69.5237 268.957 70.6329C268.379 72.204 267.709 73.7362 267.055 75.2753C266.803 75.8684 266.573 76.4711 266.31 77.0593C266.293 77.0922 266.278 77.1263 266.266 77.1614C266.25 77.2293 266.221 77.2935 266.182 77.3504C266.162 77.3804 266.149 77.4139 266.142 77.449C266.135 77.5079 266.113 77.5638 266.077 77.611C266.023 77.6714 265.947 77.7185 265.948 77.8145C265.949 77.8385 265.949 77.8625 265.949 77.8867C265.946 77.9108 265.94 77.9346 265.932 77.9574C265.827 78.1548 265.778 78.3764 265.673 78.5738L265.677 78.567C265.67 78.595 265.659 78.622 265.645 78.6473C265.693 78.8052 265.738 78.8377 265.829 78.7669C265.886 78.7222 265.93 78.6588 265.976 78.6007C268.702 75.1475 271.427 71.694 274.152 68.2402C274.232 68.1382 274.307 68.0316 274.384 67.9272C274.384 67.9094 274.387 67.8918 274.394 67.8757C274.402 67.8595 274.413 67.8453 274.426 67.834L274.427 67.8472C274.761 67.3989 274.994 66.886 275.315 66.4285C275.446 66.2415 275.619 66.0756 275.693 65.851C275.581 65.7217 275.443 65.7567 275.319 65.7563C273.995 65.7522 272.838 65.3003 271.856 64.4075C271.284 63.8892 270.845 63.2398 270.575 62.5146C270.52 62.3667 270.465 62.2163 270.335 62.0949C270.197 62.1285 270.163 62.2487 270.114 62.3561C269.418 63.9003 268.853 65.4967 268.271 67.0871C267.884 68.1437 267.651 69.246 267.292 70.3098C267.155 70.5757 267.133 70.8755 267.053 71.1582C267.026 71.2528 267.011 71.3623 267.123 71.4294Z" fill="#FFBC02"/>
<path d="M267.339 70.3138C267.472 70.0961 267.508 69.8433 267.581 69.6049C267.785 68.9448 267.928 68.2664 268.161 67.6152C268.604 66.3769 269.037 65.1351 269.523 63.9134C269.743 63.3594 269.989 62.8158 270.224 62.2681C270.251 62.2165 270.282 62.1665 270.315 62.1185C270.384 62.2597 270.454 62.3746 270.498 62.4985C270.822 63.3946 271.367 64.1313 272.108 64.7135C273.082 65.478 274.189 65.8545 275.427 65.8206C275.495 65.8187 275.57 65.811 275.65 65.8569C275.219 66.4034 274.866 66.9922 274.531 67.5933C274.487 67.6729 274.415 67.7433 274.428 67.8473C274.46 67.8332 274.492 67.819 274.524 67.8048L274.524 67.8042C274.6 67.894 274.531 67.9796 274.51 68.0613C274.264 69.0461 274.015 70.0303 273.763 71.0139C273.742 71.0948 273.716 71.177 273.714 71.2592C273.712 71.3417 273.753 71.4059 273.856 71.369C273.93 71.2598 273.973 71.1378 274.01 71.0108C274.474 69.428 275.102 67.9047 275.657 66.3551C275.776 66.0229 275.981 65.8176 276.348 65.7505C277.266 65.5829 278.066 65.1645 278.751 64.5264C278.86 64.425 278.971 64.3254 279.05 64.1964C279.068 64.1628 279.087 64.1296 279.106 64.0969C279.123 64.0845 279.121 64.0688 279.112 64.052C279.133 64.0582 279.133 64.0703 279.111 64.0884C279.092 64.1202 279.076 64.153 279.061 64.1866C278.792 65.0251 278.416 65.814 278 66.5855C277.94 66.6963 277.805 66.808 277.94 66.9574C278.218 66.6713 278.523 66.4068 278.77 66.095C279.457 65.2252 280.171 64.3751 280.656 63.3582C281.431 61.734 281.535 60.0689 280.882 58.3941C280.179 56.5898 278.847 55.4452 277.002 54.9082C276.984 54.9057 276.965 54.9059 276.947 54.9087C276.917 54.8749 276.871 54.9007 276.837 54.8797L276.835 54.8794C275.963 54.7879 275.084 54.8666 274.244 55.1112C272.771 55.547 271.464 56.2646 270.719 57.7261C270.49 58.175 270.214 58.5976 269.986 59.0477C269.476 60.0504 269.28 61.154 268.984 62.2242C268.508 63.9458 268.045 65.6724 267.722 67.432C267.563 68.2968 267.414 69.1637 267.276 70.0328C267.26 70.1327 267.232 70.2397 267.339 70.3138Z" fill="#EC7702"/>
<path d="M277.94 66.957C277.895 66.8296 277.986 66.7449 278.038 66.6514C278.436 65.9409 278.775 65.1979 279.052 64.4302C279.085 64.3356 279.138 64.2416 279.092 64.1346L279.082 64.129C278.954 64.1789 278.89 64.3012 278.796 64.3893C278.197 64.9493 277.527 65.3847 276.722 65.5854C276.497 65.6417 276.274 65.7096 276.047 65.7602C275.918 65.7889 275.839 65.8565 275.77 65.9684C275.608 66.2334 275.496 66.5224 275.399 66.8126C274.977 68.0795 274.451 69.308 274.059 70.5853C273.98 70.8427 273.889 71.0982 273.856 71.3686C273.952 71.3611 273.993 71.2795 274.048 71.2198C275.288 69.8717 276.528 68.5229 277.766 67.1733C277.797 67.1394 277.822 67.1 277.85 67.0632C277.845 66.9968 277.91 66.9876 277.94 66.9499L277.94 66.957Z" fill="#FFBC02"/>
<path d="M267.339 70.3136C267.287 70.0466 267.379 69.791 267.428 69.5402C267.615 68.5763 267.732 67.5992 267.948 66.6408C268.162 65.6933 268.392 64.7499 268.638 63.8106C268.881 62.8806 269.121 61.95 269.381 61.0248C269.52 60.5314 269.619 60.0252 269.83 59.5552C269.945 59.3007 270.062 59.0466 270.194 58.8013C270.384 58.4478 270.603 58.1096 270.785 57.752C271.234 56.8726 271.922 56.2473 272.778 55.7926C273.12 55.6102 273.474 55.4523 273.838 55.3201C274.704 55.0068 275.601 54.95 276.506 54.9203C276.616 54.9184 276.727 54.9046 276.834 54.8792C276.163 54.6849 275.478 54.6522 274.792 54.7279C272.76 54.952 271.196 55.9467 270.094 57.6726C269.309 58.9023 268.861 60.2677 268.575 61.6918C268.198 63.564 267.828 65.4373 267.463 67.312C267.188 68.7081 266.914 70.1044 266.64 71.5009C266.628 71.5652 266.617 71.6299 266.604 71.694C266.587 71.7716 266.58 71.8485 266.669 71.8853C266.754 71.9204 266.811 71.8681 266.858 71.8061C266.919 71.7246 266.978 71.6406 267.037 71.5578C267.054 71.5366 267.064 71.5113 267.081 71.4906L267.078 71.4948C267.088 71.4685 267.103 71.4443 267.122 71.4237L267.123 71.4294C267.052 71.2781 267.128 71.139 267.161 70.9983C267.215 70.7688 267.279 70.5417 267.339 70.3136Z" fill="#D06204"/>
<path d="M269.839 67.135C269.582 67.448 269.449 67.8307 269.279 68.1903C269.094 68.5848 268.928 68.9897 268.718 69.3721C268.661 69.4774 268.661 69.6105 268.562 69.6934C268.548 69.7181 268.535 69.7429 268.519 69.7665L268.519 69.7604C268.578 69.8579 268.503 69.9363 268.48 70.0193C268.383 70.356 268.243 70.6784 268.164 71.0211C268.141 71.0595 268.171 71.1149 268.126 71.1468L268.131 71.1377C268.13 71.1672 268.119 71.1955 268.1 71.2175L268.1 71.2151C268.057 71.2881 268.117 71.3958 268.023 71.4522L268.044 71.4639L268.025 71.4502C267.735 72.5729 267.41 73.6846 267.017 74.7747C266.772 75.4516 266.546 76.1348 266.3 76.8113C266.264 76.9113 266.207 77.0266 266.331 77.1172C266.466 76.9898 266.496 76.8042 266.564 76.6449C266.917 75.823 267.24 74.9882 267.594 74.1669C267.982 73.268 268.352 72.3621 268.719 71.4547C269.23 70.1891 269.603 68.8712 269.834 67.5237C269.856 67.3959 269.883 67.265 269.838 67.1347L269.839 67.135Z" fill="#ED7801"/>
<path d="M266.331 77.1174C266.273 76.9893 266.342 76.8761 266.383 76.7669C266.791 75.657 267.182 74.5409 267.546 73.4156C267.724 72.8666 267.865 72.3051 268.017 71.7477C268.043 71.653 268.093 71.5514 268.025 71.4504C267.956 71.5424 267.938 71.6556 267.903 71.7609C267.301 73.5771 266.7 75.3937 266.1 77.2108C266.022 77.4488 265.92 77.6794 265.873 77.9278C265.889 77.9376 265.906 77.9421 265.924 77.9406C265.942 77.9391 265.959 77.9317 265.972 77.9195L265.973 77.9149C265.981 77.8906 265.993 77.8674 266.007 77.8458C265.98 77.7397 266.106 77.7187 266.121 77.6356C266.155 77.5766 266.144 77.5008 266.189 77.4453L266.225 77.3764C266.257 77.3159 266.248 77.2398 266.296 77.1856L266.331 77.1174Z" fill="#D3690E"/>
<path d="M265.972 77.9188C265.939 77.9215 265.906 77.9242 265.873 77.927C265.79 78.1373 265.7 78.3451 265.672 78.5731C265.844 78.3889 265.926 78.1621 265.972 77.9188Z" fill="#EF8210"/>
<path d="M268.023 71.4523C268.159 71.4099 268.124 71.3102 268.101 71.2144C268.051 71.2837 268.024 71.3667 268.023 71.4523Z" fill="#D3690E"/>
<path d="M268.126 71.147C268.179 71.1174 268.176 71.0706 268.165 71.0209C268.148 71.0371 268.137 71.0571 268.13 71.0791C268.123 71.1011 268.122 71.1244 268.126 71.147Z" fill="#D3690E"/>
<path d="M276.836 54.8786C276.868 54.9122 276.907 54.9113 276.948 54.9082C276.933 54.8937 276.916 54.8834 276.896 54.8782C276.876 54.873 276.856 54.8731 276.836 54.8786Z" fill="#D06204"/>
<path d="M277.94 66.9496C277.881 66.964 277.846 66.998 277.85 67.0633C277.889 67.0325 277.935 67.0074 277.94 66.9496Z" fill="#EC7702"/>
<path d="M268.1 71.2179C268.112 71.2089 268.122 71.1966 268.127 71.1822C268.133 71.1679 268.134 71.1522 268.131 71.137C268.118 71.1448 268.107 71.1571 268.102 71.1717C268.096 71.1864 268.095 71.2027 268.1 71.2179Z" fill="#D3690E"/>
<path d="M267.122 71.4227C267.114 71.4244 267.107 71.4276 267.101 71.4322C267.094 71.4367 267.089 71.4426 267.085 71.4493C267.081 71.456 267.078 71.4634 267.077 71.4713C267.076 71.4791 267.076 71.4871 267.078 71.4948C267.111 71.4826 267.133 71.4633 267.122 71.4227Z" fill="#FFBC02"/>
<path d="M267.081 71.4897C267.067 71.4947 267.056 71.504 267.048 71.5163C267.04 71.5285 267.036 71.5431 267.037 71.5577C267.051 71.5538 267.064 71.5447 267.072 71.5322C267.08 71.5197 267.083 71.5046 267.081 71.4897Z" fill="#FFBC02"/>
<path d="M265.645 78.6467C265.656 78.6196 265.666 78.5925 265.677 78.5653C265.663 78.5718 265.651 78.5839 265.645 78.5991C265.638 78.6143 265.638 78.6314 265.645 78.6467Z" fill="#EF8210"/>
<path d="M274.426 67.833C274.411 67.8431 274.399 67.8573 274.392 67.874C274.385 67.8906 274.382 67.9092 274.384 67.9274C274.412 67.9023 274.443 67.8789 274.426 67.833Z" fill="#EC7702"/>
<path d="M266.296 77.1849C266.186 77.2154 266.205 77.2957 266.225 77.3762C266.255 77.3558 266.278 77.3264 266.291 77.2921C266.304 77.2578 266.306 77.2203 266.296 77.1849Z" fill="#ED7801"/>
<path d="M266.189 77.4447C266.084 77.4783 266.101 77.5564 266.121 77.6356C266.151 77.6159 266.175 77.5865 266.187 77.552C266.199 77.5175 266.2 77.4798 266.189 77.4447Z" fill="#EE7B04"/>
<path d="M268.519 69.7666C268.571 69.764 268.568 69.7296 268.562 69.6925C268.529 69.7062 268.509 69.7275 268.519 69.7666Z" fill="white"/>
<path d="M266.007 77.8447C265.996 77.8681 265.984 77.8914 265.973 77.9148C265.984 77.8914 265.996 77.8681 266.007 77.8447Z" fill="#EF8210"/>
<path d="M269.838 67.1349L269.855 67.1066C269.851 67.1091 269.844 67.1104 269.843 67.1141C269.84 67.121 269.839 67.1281 269.839 67.1353L269.838 67.1349Z" fill="#ED7801"/>
<path d="M279.125 64.0631L279.143 64.035C279.138 64.0373 279.132 64.0384 279.13 64.0421C279.127 64.0489 279.126 64.056 279.125 64.0632L279.125 64.0631Z" fill="#FFBC02"/>
<path d="M279.126 64.062C279.111 64.0843 279.097 64.1066 279.082 64.1289L279.092 64.1345C279.104 64.1269 279.113 64.116 279.119 64.1032C279.125 64.0904 279.127 64.0761 279.126 64.0619L279.126 64.062Z" fill="#FFBC02"/>
<path d="M274.523 67.8041C274.543 67.8168 274.559 67.8144 274.561 67.7957C274.562 67.7861 274.55 67.7748 274.544 67.7643C274.537 67.7778 274.531 67.7912 274.524 67.8047L274.523 67.8041Z" fill="white"/>
</g>
<path d="M276.259 35.9885C277.209 33.6186 278.119 31.2319 279.117 28.8824C280.961 24.5418 283.274 20.4508 285.944 16.5617C287.691 14.0158 289.572 11.5708 291.665 9.29355C291.699 9.25642 291.752 9.23609 291.796 9.20793C292.187 9.06404 292.599 8.99924 293.006 8.92779C294.284 8.70322 295.569 8.54298 296.868 8.48382C297.945 8.43483 299.016 8.4295 300.085 8.55272C301.242 8.68617 302.376 8.92712 303.423 9.45928C303.826 9.66421 304.252 9.85039 304.541 10.2252C304.578 10.3104 304.551 10.3895 304.52 10.4703C303.98 11.8866 303.542 13.3395 302.984 14.7492C302.941 14.8566 302.925 14.9766 302.834 15.0612C302.724 15.1319 302.609 15.1044 302.496 15.0717C300.619 14.5293 299.059 15.1361 297.731 16.443C296.395 17.7563 295.745 19.394 295.723 21.2451C295.705 22.7547 296.078 24.164 297.171 25.298C297.245 25.3747 297.313 25.4555 297.343 25.5611C297.407 25.9202 297.57 26.2411 297.731 26.5629C297.774 26.7128 297.69 26.8292 297.626 26.95C295.683 30.5973 293.56 34.1394 291.353 37.6325C291.245 37.8031 291.145 37.9785 291.032 38.1458C290.808 38.478 290.664 38.5194 290.318 38.3059C289.046 37.5226 287.662 37.01 286.226 36.6362C284.364 36.1515 282.461 35.94 280.539 35.9011C279.23 35.8746 277.923 35.9076 276.621 36.0537C276.497 36.0676 276.364 36.0952 276.259 35.9885Z" fill="#CFDFE8"/>
<path d="M271.555 49.0906C271.52 49.0917 271.485 49.0927 271.45 49.0937C271.357 48.9598 271.421 48.8268 271.46 48.6984C271.695 47.9275 272.007 47.1849 272.292 46.4317C272.748 45.2226 273.19 44.0081 273.64 42.7965C273.876 42.1616 274.146 41.5381 274.247 40.8616C274.277 40.6931 274.346 40.5372 274.407 40.3789C274.859 39.2003 275.289 38.0138 275.674 36.8112C275.712 36.6898 275.775 36.5778 275.86 36.4823C275.914 36.4825 275.969 36.4826 276.023 36.4828C276.235 36.5192 276.446 36.5071 276.659 36.4842C279.457 36.1829 282.244 36.2578 285.01 36.7906C286.797 37.1348 288.502 37.7153 290.073 38.649C290.504 38.9054 290.514 38.965 290.245 39.3928C289.183 41.0811 288.096 42.7539 287.03 44.4397C286.93 44.5975 286.856 44.7858 286.657 44.8593C286.349 44.8233 286.06 44.6795 285.729 44.7519C285.441 44.8148 285.207 44.9124 285.089 45.1978C285.012 45.3607 284.924 45.5181 284.825 45.6689C284.003 46.9588 283.32 48.3224 282.646 49.6917C282.578 49.8308 282.528 49.9917 282.362 50.0603C282.206 50.0996 282.066 50.0431 281.93 49.9851C279.838 49.0978 277.634 48.8296 275.385 48.7904C274.576 48.7763 273.771 48.8533 272.964 48.8701C272.486 48.8748 272.011 48.9491 271.555 49.0906Z" fill="#CFDFE7"/>
<g filter="url(#filter0_d)">
<path d="M277.152 65.9751C273.763 65.2504 271.037 63.4239 268.657 60.9815C268.105 60.4145 267.971 59.9378 268.24 59.1799C268.966 57.1368 269.597 55.0601 270.265 52.9968C270.409 52.8999 270.573 52.9268 270.729 52.9357C273.249 53.0801 275.704 53.5426 278.067 54.4359C278.812 54.7183 279.528 55.0694 280.207 55.4846C280.94 55.9316 281.69 56.3517 282.348 56.9061C282.688 57.1919 283.025 57.4833 283.338 57.7995C283.361 57.8423 283.371 57.8905 283.369 57.939C283.076 58.8849 282.529 59.6966 281.974 60.4994C281.051 61.8349 280.105 63.1543 279.054 64.3951C278.607 64.923 278.122 65.4135 277.552 65.8133C277.43 65.8984 277.315 65.9937 277.152 65.9751Z" fill="#FEBE01"/>
</g>
<path d="M295.933 44.7946C296.731 49.3184 297.529 53.8423 298.326 58.3661C298.495 59.5424 298.462 60.7288 298.505 61.9115C298.526 62.4739 298.522 63.0324 298.446 63.5911C298.433 63.7067 298.398 63.8187 298.341 63.9204C298.284 64.0221 298.207 64.1113 298.115 64.1829C297.74 64.4837 297.343 64.7461 296.895 64.9256C296.418 65.1162 296.309 65.0833 296.011 64.6745C294.499 62.6006 292.935 60.5671 291.275 58.6084C290.659 57.8807 290.044 57.1497 289.373 56.4693C289.081 56.1735 288.778 55.8947 288.416 55.6861C288.287 55.5338 288.394 55.4048 288.468 55.2822C288.923 54.5278 289.402 53.789 289.928 53.0808C291.237 51.3167 292.521 49.5351 293.743 47.709C294.357 46.7915 294.914 45.8377 295.548 44.9332C295.664 44.8529 295.775 44.7589 295.933 44.7946Z" fill="#FEBE01"/>
<path d="M304.559 10.3394C303.106 9.09181 301.329 8.74479 299.503 8.61007C297.031 8.42767 294.586 8.70238 292.165 9.21063C292.047 9.23533 291.919 9.20986 291.796 9.20771C291.785 8.93078 292.055 8.86787 292.196 8.71761C295.012 5.71272 298.072 3.00668 301.765 1.09456C302.521 0.702928 303.306 0.375406 304.187 0.394975C304.258 0.418869 304.321 0.46221 304.368 0.520025C305.523 1.9894 306.582 3.50995 306.955 5.3908C307.194 6.59141 307.274 7.80509 307.235 9.02774C307.191 10.3955 307.09 11.7594 306.953 13.1208C306.926 13.3853 306.9 13.6526 306.663 13.834C306.615 13.8558 306.561 13.8593 306.51 13.8439C306.384 13.7714 306.374 13.6358 306.337 13.5172C306.028 12.529 305.653 11.576 304.925 10.8055C304.797 10.6547 304.629 10.5353 304.559 10.3394Z" fill="#FEBE01"/>
<path d="M275.86 36.4824C275.349 37.9415 274.838 39.4005 274.328 40.8596C274.222 41.1615 274.013 41.3707 273.76 41.564C271.979 42.9256 270.15 44.2184 268.271 45.4421C267.133 46.1854 265.956 46.8698 264.701 47.4069C264.207 47.6184 263.672 47.6678 263.152 47.7664C260.907 48.1918 258.67 48.6554 256.453 49.2089C255.989 49.3246 255.518 49.414 255.067 49.5781C254.978 49.6105 254.884 49.6415 254.796 49.5667C255.002 48.6905 255.203 47.8132 255.421 46.9399C255.444 46.8446 255.548 46.741 255.642 46.695C262.389 43.3739 269.106 39.9939 275.767 36.5061C275.797 36.4947 275.828 36.4867 275.86 36.4824Z" fill="#FEBE01"/>
<path d="M283.287 57.8524C279.677 54.4843 275.248 53.2749 270.453 53.0286C270.39 53.0217 270.327 53.0111 270.265 52.9968C270.491 52.3043 270.717 51.6118 270.943 50.9193C271.044 50.6128 271.146 50.3065 271.228 49.9942C271.24 49.9649 271.253 49.9357 271.265 49.9064C271.282 49.8933 271.297 49.8812 271.262 49.9016C271.317 49.8012 271.373 49.7008 271.428 49.6004C271.528 49.4542 271.683 49.4159 271.844 49.3976C274.884 49.0528 277.9 49.0626 280.851 50.0033C281.266 50.1353 281.685 50.263 282.042 50.5258C282.154 50.6865 282.069 50.8313 281.995 50.9703C281.752 51.4287 281.531 51.8983 281.291 52.3587C281.089 52.7454 281.081 53.1416 281.234 53.5553C281.362 53.8979 281.573 54.11 281.943 54.1468C282.381 54.1903 282.802 54.1775 283.076 53.755C283.376 53.2926 283.678 52.8318 283.982 52.3725C284.052 52.2674 284.106 52.1483 284.226 52.0847C284.385 52.0451 284.491 52.1447 284.589 52.2373C285.106 52.7248 285.58 53.2553 286.006 53.8231C286.064 53.8999 286.117 53.9797 286.094 54.0844C285.346 55.1687 284.598 56.2534 283.784 57.2912C283.696 57.41 283.616 57.5339 283.543 57.6622C283.485 57.7573 283.44 57.881 283.287 57.8524Z" fill="#CFDFE7"/>
<path d="M306.518 13.778C306.548 13.7919 306.578 13.8058 306.608 13.8197C306.735 13.8874 306.765 14.0148 306.792 14.1374C306.997 15.0635 307.22 15.9846 307.22 16.9448C307.219 17.4074 307.286 17.8702 307.246 18.3347C306.926 20.1269 306.437 21.8751 305.865 23.6018C305.212 24.5365 304.906 25.6288 304.474 26.6623C303.569 28.826 302.562 30.9428 301.543 33.0549C300.192 35.8583 298.658 38.561 297.035 41.2152C296.564 41.9841 296.297 42.8322 296.18 43.7258C296.169 43.8097 296.158 43.8944 296.112 43.9691C296.071 44.1066 296.04 44.252 295.869 44.2928C295.736 44.3043 295.682 44.2029 295.632 44.1135C295.328 43.5669 294.971 43.0532 294.632 42.5285C294.574 42.4387 294.517 42.3486 294.543 42.2336C294.749 41.7849 295.085 41.4233 295.368 41.0276C296.208 39.8538 297.057 38.6864 297.877 37.499C298.255 36.9517 298.513 36.3454 298.682 35.707C299.083 34.1864 299.253 32.6478 299.023 31.078C298.958 30.6337 298.839 30.2079 298.698 29.7858C298.439 29.0121 298.207 28.2295 297.928 27.4622C298.029 27.0442 298.2 26.6629 298.514 26.3563C298.643 26.315 298.767 26.3511 298.888 26.3866C300.417 26.833 301.773 26.4392 303.026 25.5425C303.233 25.3948 303.432 25.2393 303.593 25.0408C303.607 25.013 303.624 24.9869 303.644 24.9632C303.74 24.8929 303.842 24.8271 303.862 24.6953C303.911 24.59 303.977 24.4928 304.056 24.4069C304.994 23.3438 305.471 22.097 305.554 20.6922C305.557 20.6185 305.567 20.5452 305.584 20.4732C305.617 20.3911 305.623 20.3004 305.6 20.2148C305.574 20.0886 305.561 19.9626 305.6 19.8365C305.728 19.5658 305.642 19.2886 305.586 19.0299C305.367 18.0101 305.01 17.0477 304.29 16.2569C304.226 16.1864 304.171 16.1073 304.179 16.0033C304.238 15.8304 304.4 15.7788 304.543 15.7265C305.191 15.49 305.657 15.0167 306.126 14.5443C306.249 14.4195 306.293 14.2564 306.354 14.0994C306.398 13.9879 306.377 13.8406 306.518 13.778Z" fill="#ACBBC4"/>
<path d="M254.796 49.5666C257.264 48.7963 259.788 48.2211 262.346 47.8462C265.096 47.4473 267.28 45.9846 269.474 44.4994C270.916 43.5241 272.308 42.4777 273.714 41.4514C273.942 41.2854 274.124 41.0584 274.328 40.8595C274.267 41.6677 273.883 42.3782 273.619 43.1225C272.912 45.1184 272.175 47.104 271.449 49.0937C265.945 49.4876 260.441 49.8973 254.934 50.2535C254.307 50.2941 254.859 49.7996 254.796 49.5666Z" fill="#CF9601"/>
<path d="M288.393 55.6188C289.349 56.0182 289.892 56.8711 290.535 57.599C292.539 59.8705 294.395 62.2621 296.163 64.7205C296.301 64.9131 296.424 64.9962 296.688 64.8989C298.269 64.3155 298.572 63.6881 298.409 61.4865C298.332 60.45 298.351 59.4064 298.326 58.366C298.912 61.4145 299.501 64.4625 300.075 67.5133C300.097 67.6302 300.005 67.7964 299.919 67.9008C299.284 68.6714 298.627 69.4232 298.001 70.2004C297.75 70.5121 297.614 70.5251 297.382 70.1746C294.361 65.613 291.333 61.0562 288.298 56.5041C288.234 56.408 288.16 56.3188 288.09 56.2264C288.025 56.1897 288.016 56.1295 288.02 56.0631C288.103 55.8802 288.147 55.6658 288.393 55.6188Z" fill="#D09602"/>
<path d="M294.566 42.2704C295 42.9445 295.435 43.6187 295.869 44.2928C295.89 44.46 295.912 44.6272 295.934 44.7944C295.824 44.8495 295.714 44.9046 295.604 44.9596C295.363 44.9774 295.28 44.7898 295.191 44.6279C294.872 44.0458 294.517 43.4869 294.146 42.9372C293.324 41.7559 292.398 40.6674 291.283 39.747C290.948 39.4702 290.925 39.4751 290.687 39.8515C289.596 41.5744 288.489 43.2867 287.398 45.009C287.325 45.1246 287.264 45.2534 287.123 45.3075C286.791 45.2203 286.645 45.0768 286.647 44.84C287.867 42.9362 289.088 41.0331 290.309 39.1306C290.452 38.9101 290.269 38.8791 290.156 38.8106C287.392 37.1356 284.324 36.596 281.156 36.4386C279.551 36.3598 277.941 36.4155 276.345 36.6051C276.23 36.6186 276.053 36.7208 276.023 36.4828C276.102 36.3179 276.18 36.153 276.259 35.9881C279.789 35.6511 283.291 35.7179 286.732 36.6836C288.059 37.0559 289.323 37.5771 290.494 38.3089C290.626 38.3915 290.725 38.473 290.85 38.2753C293.238 34.4857 295.572 30.6641 297.651 26.6947C297.667 26.6557 297.679 26.6151 297.687 26.5737C297.677 26.3415 297.78 26.1705 297.975 26.0494C298.336 26.0804 298.473 26.1775 298.494 26.417C298.317 26.7554 298.14 27.0938 297.963 27.4322C298.002 27.6062 297.898 27.7384 297.825 27.8767C296.972 29.4898 296.064 31.0725 295.135 32.643C293.984 34.588 292.798 36.5111 291.593 38.4231C291.38 38.7604 291.38 38.7667 291.688 39.0162C292.733 39.8644 293.62 40.8606 294.431 41.9273C294.508 42.0284 294.593 42.1282 294.566 42.2704Z" fill="#33617B"/>
<path d="M277.152 65.9751C278.919 64.8091 279.998 63.0324 281.227 61.3932C282.038 60.312 282.779 59.1825 283.33 57.9417C283.463 57.9127 283.555 57.9922 283.637 58.0706C284.202 58.6075 284.731 59.1799 285.223 59.7843C285.276 59.8502 285.323 59.9204 285.323 60.0105C283.79 62.1353 282.255 64.2585 280.718 66.3802C280.664 66.4544 280.513 66.4997 280.412 66.4923C279.311 66.4109 278.218 66.2769 277.152 65.9751Z" fill="#CF9601"/>
<path d="M307.246 18.335C307.025 18.1192 307.161 17.8501 307.153 17.6101C307.11 16.3305 306.927 15.0596 306.608 13.8199C307.058 12.8386 306.944 11.7761 307.026 10.7479C307.201 8.56497 307.243 6.38696 306.522 4.26428C306.024 2.79928 305.008 1.65911 304.187 0.395203C306.121 0.363223 307.612 1.68365 308.009 3.837C308.837 8.3324 308.383 12.7877 307.499 17.2203C307.425 17.5898 307.627 18.034 307.246 18.335Z" fill="#D09603"/>
<path d="M296.112 43.9692C296.09 42.6116 296.734 41.4928 297.411 40.3865C300.411 35.4849 302.902 30.3335 305.027 25.0024C305.23 24.4929 305.419 23.9699 305.865 23.6019C305.114 26.2682 304.106 28.8424 303.022 31.3883C301.169 35.7435 298.795 39.8187 296.258 43.8049C296.219 43.8658 296.161 43.9147 296.112 43.9692Z" fill="#86959E"/>
<path d="M285.323 60.0105C284.658 59.3209 283.994 58.6313 283.33 57.9417C283.316 57.9118 283.301 57.882 283.287 57.8523C284.077 56.7405 284.864 55.6268 285.66 54.519C285.773 54.3617 285.925 54.2327 286.06 54.0907C286.214 54.0492 286.258 54.1825 286.324 54.2666C286.645 54.6851 286.93 55.1298 287.176 55.5959C287.35 55.9189 287.541 56.2312 287.734 56.543C287.018 57.7596 286.173 58.8864 285.323 60.0105Z" fill="#ACBBC4"/>
<path d="M282.065 50.6168C279.856 49.5503 277.487 49.302 275.077 49.2993C273.854 49.298 272.632 49.3557 271.428 49.6006C271.47 49.4307 271.512 49.2608 271.555 49.091C271.65 48.8882 271.848 48.9058 272.021 48.8872C275.518 48.5107 278.966 48.5795 282.261 50.0169C282.295 50.0317 282.341 50.0205 282.381 50.0214C282.46 49.9564 282.469 50.0413 282.474 50.0759C282.507 50.2965 282.314 50.5473 282.065 50.6168Z" fill="#32607B"/>
<path d="M287.734 56.5431C287.092 55.9167 286.86 55.0196 286.28 54.3521C286.205 54.2662 286.133 54.1779 286.06 54.0908C285.572 53.3267 284.962 52.671 284.277 52.0809C284.092 52.0348 284.118 51.9093 284.188 51.7966C284.292 51.6287 284.358 51.3868 284.648 51.4868C285.36 52.0156 285.91 52.697 286.454 53.3851C287.039 54.1151 287.532 54.9043 287.977 55.7249C288.043 55.8345 288.073 55.9614 288.064 56.0887C288.073 56.1346 288.082 56.1806 288.09 56.2265C287.972 56.332 287.853 56.4376 287.734 56.5431Z" fill="#33617B"/>
<path d="M271.228 49.9941C271.133 50.3026 271.038 50.6111 270.943 50.9194C271.038 50.6108 271.133 50.3024 271.228 49.9941Z" fill="#EBC541"/>
<path d="M271.262 49.9017C271.263 49.9034 271.264 49.905 271.265 49.9066C271.264 49.9049 271.263 49.9033 271.262 49.9017Z" fill="#EBC541"/>
<path d="M298.494 26.4173C298.316 26.3123 298.139 26.2072 297.961 26.1022C297.661 26.0237 297.452 25.8224 297.265 25.5919C295.494 23.6463 295.251 21.4174 296.022 18.9917C296.852 16.3749 299.769 13.9066 302.714 15.0293C302.741 15.0394 302.777 15.0245 302.809 15.0212C303.017 15.0531 303.188 15.1782 303.382 15.2457C303.674 15.4709 304.027 15.6291 304.213 15.9749C305.111 16.9887 305.62 18.1691 305.741 19.5161C305.752 19.6315 305.828 19.7735 305.662 19.8522C305.516 19.7727 305.53 19.6209 305.502 19.4911C305.334 18.7141 305.07 17.9806 304.491 17.406C303.655 16.5751 302.667 16.3431 301.54 16.7094C301.088 16.8246 300.641 16.9558 300.241 17.2071C300.026 17.322 299.863 17.5024 299.674 17.6507C299.213 18.1059 298.815 18.6074 298.523 19.1881C298.454 19.3271 298.393 19.4696 298.34 19.6152C297.979 20.5575 297.797 21.5176 297.941 22.5339C298.021 23.1004 298.173 23.626 298.494 24.1004C298.556 24.1867 298.604 24.2815 298.638 24.3818C298.775 24.8473 299.123 25.1494 299.494 25.4126C300.472 26.1077 301.508 26.0327 302.555 25.576C302.838 25.4524 303.095 25.2804 303.341 25.0914C303.438 25.0167 303.531 24.9093 303.68 24.9786C303.106 25.8282 302.229 26.2109 301.299 26.5134C300.351 26.8216 299.422 26.6449 298.494 26.4173Z" fill="#98A7AF"/>
<path d="M303.357 15.2832C303.252 15.2813 303.149 15.2568 303.054 15.2116C302.96 15.1663 302.876 15.1013 302.809 15.0209C303.321 13.5604 303.834 12.1003 304.348 10.6407C304.388 10.5294 304.487 10.4393 304.559 10.3393C304.691 10.4665 304.823 10.5937 304.955 10.7208C305.021 10.8334 304.989 10.9454 304.953 11.0574C304.512 12.4092 304.035 13.7484 303.534 15.0789C303.5 15.1668 303.474 15.2647 303.357 15.2832Z" fill="#33617B"/>
<path d="M297.265 25.5917C297.497 25.7618 297.729 25.9319 297.961 26.102C297.87 26.2593 297.778 26.4166 297.687 26.5739C297.412 26.3036 297.328 25.9523 297.265 25.5917Z" fill="#ACBBC4"/>
<path d="M284.622 51.5445C284.34 51.6168 284.181 51.7679 284.277 52.0811C283.938 52.6057 283.586 53.1228 283.263 53.6569C282.799 54.4237 282.09 54.4748 281.468 54.0619C280.942 53.713 280.879 53.0335 281.15 52.43C281.427 51.8131 281.758 51.2202 282.065 50.6167C282.222 50.4455 282.413 50.292 282.381 50.0212C283.185 48.3707 284.021 46.7376 285.007 45.1849C285.439 44.9809 285.906 44.9161 286.371 44.9255C286.67 44.9315 286.86 45.2348 287.131 45.349C287.383 45.5372 287.48 45.7982 287.449 46.0992C287.357 47.0113 287.178 47.8804 286.604 48.6544C285.992 49.4794 285.49 50.3835 284.929 51.2458C284.851 51.366 284.797 51.5202 284.622 51.5445Z" fill="#FDBE03"/>
<path d="M287.129 45.4088C286.478 44.8075 285.729 45.1216 285.007 45.1849C285.419 44.432 286.019 44.5695 286.647 44.8402C286.797 44.9917 286.947 45.1431 287.097 45.2946C287.172 45.3146 287.161 45.3587 287.129 45.4088Z" fill="#EBC541"/>
<path d="M288.064 56.0886C287.499 55.2002 286.934 54.3119 286.369 53.4235C286.54 52.9575 286.884 52.6007 287.161 52.2035C288.107 50.8465 289.095 49.519 290.083 48.1928C290.812 47.215 291.538 46.2349 292.272 45.2606C292.757 44.6169 293.24 43.9717 293.707 43.3147C293.835 43.1347 293.918 42.8882 294.199 42.8696C294.668 43.5663 295.136 44.263 295.604 44.9597C293.803 47.9504 291.749 50.7686 289.69 53.5848C289.216 54.2329 288.823 54.9394 288.393 55.6189C288.284 55.7754 288.174 55.932 288.064 56.0886Z" fill="#ACBBC3"/>
<path d="M303.357 15.2833C303.89 13.7625 304.422 12.2416 304.955 10.7208C305.823 11.5635 306.182 12.665 306.518 13.7781C306.258 15.0398 305.247 15.5187 304.213 15.9747C303.928 15.7442 303.642 15.5138 303.357 15.2833Z" fill="#CEDEE6"/>
<path d="M294.566 42.2706C293.627 41.034 292.624 39.8581 291.374 38.9165C291.249 38.8227 291.257 38.7488 291.333 38.6292C293.663 34.9674 295.899 31.2505 297.963 27.4324C299.019 29.8051 299.524 32.2278 299.012 34.8512C298.646 36.7294 297.551 38.1561 296.499 39.6364C295.869 40.5241 295.211 41.3932 294.566 42.2706Z" fill="#CEDFE8"/>
<path d="M301.523 16.6358C303.085 15.9059 305.1 17.127 305.499 19.0455C305.555 19.314 305.608 19.5833 305.662 19.8522C305.672 19.9989 305.682 20.1456 305.693 20.2923C305.699 20.3391 305.692 20.3867 305.672 20.4294C305.634 22.0931 305.02 23.5252 303.912 24.7582C303.864 24.8614 303.77 24.9177 303.681 24.9793L303.68 24.9787C302.668 25.7591 301.576 26.2918 300.261 25.9026C299.482 25.6721 298.861 25.208 298.552 24.4155C298.699 24.3761 298.799 24.4685 298.89 24.5514C299.632 25.2326 300.668 25.2586 301.608 24.6966C301.763 24.6041 301.913 24.5051 302.064 24.4055C302.152 24.323 302.245 24.2452 302.333 24.1623C302.843 23.7221 303.192 23.1635 303.503 22.5779C303.645 22.2554 303.794 21.9355 303.855 21.5845C304.242 20.2438 304.263 18.9386 303.476 17.714C303.116 17.1541 302.597 16.8451 301.937 16.762C301.793 16.7438 301.636 16.7571 301.523 16.6358Z" fill="#606F77"/>
<path d="M303.681 24.9799C303.759 24.906 303.836 24.8321 303.913 24.7582C303.929 24.9285 303.826 24.9758 303.681 24.9799Z" fill="#98A7AF"/>
<path d="M305.672 20.4298C305.679 20.384 305.686 20.3381 305.693 20.2923C305.789 20.3535 305.745 20.3938 305.672 20.4298Z" fill="#98A7AF"/>
<path d="M294.199 42.8697C293.035 44.4176 291.863 45.9591 290.71 47.5148C289.255 49.4783 287.815 51.4535 286.369 53.4237C285.787 52.7973 285.204 52.1709 284.622 51.5445C285.373 50.3656 286.18 49.2173 286.856 47.997C287.29 47.2124 287.579 46.3266 287.13 45.4088C287.119 45.3707 287.108 45.3326 287.097 45.2946C288.317 43.3785 289.536 41.4626 290.756 39.5468C290.826 39.4371 290.873 39.2813 291.06 39.431C292.29 40.412 293.345 41.5498 294.199 42.8697Z" fill="#CEDFE7"/>
<path d="M302.148 24.4464C300.946 25.4545 299.807 25.4447 298.552 24.4153C297.51 22.8377 297.582 21.1995 298.288 19.5269C298.365 19.5536 298.407 19.6163 298.434 19.6853C298.822 20.7011 299.431 21.6188 299.698 22.4895C299.223 21.5222 299.067 20.2431 298.451 19.134C298.749 18.549 299.119 18.019 299.626 17.5921C299.783 17.6817 299.803 17.8491 299.85 17.9965C300.133 18.8723 300.406 19.7511 300.689 20.6265C301.071 21.8062 301.588 22.9321 302.039 24.0843C302.085 24.2021 302.147 24.315 302.148 24.4464Z" fill="#ADDBF4"/>
<path d="M301.523 16.6356C303.156 16.6421 304.274 17.9882 304.222 19.8862C304.206 20.4895 304.159 21.0881 303.943 21.6604C303.764 21.6366 303.716 21.4853 303.653 21.3557C303.427 20.8894 303.249 20.4072 303.202 20.0058C303.475 20.7793 303.343 21.7274 303.562 22.6277C303.287 23.2452 302.906 23.7857 302.392 24.2294C302.233 24.1407 302.209 23.9759 302.173 23.8242C301.764 22.0913 301.243 20.3916 300.668 18.7075C300.539 18.315 300.386 17.931 300.209 17.5577C300.149 17.4357 300.073 17.3112 300.164 17.1698C300.557 16.8407 301.032 16.7182 301.523 16.6356Z" fill="#ADDBF3"/>
<path d="M300.163 17.1699C301.166 19.4418 301.793 21.8311 302.392 24.2296C302.311 24.3019 302.229 24.3742 302.148 24.4466C301.748 23.5237 301.299 22.618 300.959 21.6737C300.473 20.3281 300.067 18.9542 299.626 17.5924C299.805 17.4515 299.984 17.3107 300.163 17.1699Z" fill="#D7E9F4"/>
<path d="M298.451 19.1342C298.843 19.4251 298.926 19.8834 299.066 20.3013C299.338 21.117 299.579 21.9431 299.753 22.7989C299.265 21.7084 298.776 20.6178 298.288 19.5272C298.343 19.3962 298.397 19.2652 298.451 19.1342Z" fill="#D5E9F4"/>
<path d="M303.561 22.6276C303.072 21.739 303.415 20.7316 303.135 19.8205C303.404 20.4337 303.673 21.047 303.942 21.6603C303.815 21.9828 303.689 22.3052 303.561 22.6276Z" fill="#D5E9F4"/>
<defs>
<filter id="filter0_d" x="257.405" y="45.6416" width="36.736" height="35.2162" filterUnits="userSpaceOnUse" color-interpolation-filters="sRGB">
<feFlood flood-opacity="0" result="BackgroundImageFix"/>
<feColorMatrix in="SourceAlpha" type="matrix" values="0 0 0 0 0 0 0 0 0 0 0 0 0 0 0 0 0 0 127 0" result="hardAlpha"/>
<feOffset dy="4"/>
<feGaussianBlur stdDeviation="5"/>
<feColorMatrix type="matrix" values="0 0 0 0 0 0 0 0 0 0 0 0 0 0 0 0 0 0 0.04 0"/>
<feBlend mode="normal" in2="BackgroundImageFix" result="effect1_dropShadow"/>
<feBlend mode="normal" in="SourceGraphic" in2="effect1_dropShadow" result="shape"/>
</filter>
<clipPath id="clip0">
<rect width="53" height="52" fill="white" transform="translate(33 30.0626)"/>
</clipPath>
<clipPath id="clip1">
<rect width="20" height="21" fill="white" transform="matrix(0.965926 -0.258819 -0.258793 -0.965933 265.691 78.821)"/>
</clipPath>
</defs>
</svg>
