<svg width="19" height="19" viewBox="0 0 19 19" fill="none" xmlns="http://www.w3.org/2000/svg">
<path d="M18.7616 9.43287C18.7505 9.19422 18.645 8.96976 18.4684 8.80887C18.2918 8.64798 18.0585 8.56384 17.8199 8.57496C17.5812 8.58608 17.3568 8.69155 17.1959 8.86816C17.035 9.04478 16.9508 9.27807 16.962 9.51672C17.0377 11.1274 16.5702 12.7168 15.6343 14.0298C14.6984 15.3428 13.3485 16.3034 11.8012 16.7572C10.254 17.211 8.59913 17.1318 7.10229 16.5323C5.60545 15.9328 4.35344 14.8478 3.54723 13.4513C2.74101 12.0549 2.42735 10.4282 2.65659 8.8321C2.88582 7.23605 3.64467 5.7633 4.81131 4.65025C5.97795 3.53721 7.48473 2.84841 9.08979 2.69443C10.6949 2.54045 12.3051 2.93022 13.6621 3.80116C13.7617 3.86501 13.8729 3.90863 13.9893 3.92951C14.1057 3.95039 14.2251 3.94814 14.3407 3.92287C14.4563 3.8976 14.5657 3.84982 14.6628 3.78226C14.7599 3.71469 14.8428 3.62866 14.9066 3.52907C14.9705 3.42949 15.0141 3.3183 15.035 3.20186C15.0559 3.08543 15.0536 2.96602 15.0283 2.85045C15.0031 2.73488 14.9553 2.62542 14.8877 2.52832C14.8202 2.43122 14.7341 2.34838 14.6345 2.28453C12.9382 1.19644 10.9255 0.709784 8.91941 0.902662C6.91334 1.09554 5.03023 1.95677 3.57228 3.34813C2.11433 4.7395 1.16608 6.58032 0.879703 8.57519C0.593328 10.5701 0.985434 12.6033 1.99309 14.3486C3.00076 16.0939 4.56554 17.4501 6.43634 18.1996C8.30713 18.949 10.3755 19.0482 12.3094 18.4813C14.2433 17.9143 15.9307 16.7141 17.1008 15.0732C18.2709 13.4324 18.8558 11.446 18.7616 9.43287Z" fill="white"/>
</svg>
