<svg width="17" height="18" viewBox="0 0 17 18" fill="none" xmlns="http://www.w3.org/2000/svg">
<path d="M9.99704 8.99909L16.6859 2.3201C16.8859 2.12015 16.9982 1.84896 16.9982 1.56619C16.9982 1.28342 16.8859 1.01223 16.6859 0.812279C16.486 0.61233 16.2149 0.5 15.9321 0.5C15.6494 0.5 15.3782 0.61233 15.1783 0.812279L8.5 7.50189L1.82172 0.812279C1.62179 0.61233 1.35063 0.5 1.06789 0.5C0.785146 0.5 0.513986 0.61233 0.314058 0.812279C0.11413 1.01223 0.0018122 1.28342 0.0018122 1.56619C0.0018122 1.84896 0.11413 2.12015 0.314058 2.3201L7.00296 8.99909L0.314058 15.6781C0.214544 15.7768 0.135557 15.8942 0.0816547 16.0236C0.027752 16.153 0 16.2918 0 16.432C0 16.5722 0.027752 16.711 0.0816547 16.8404C0.135557 16.9698 0.214544 17.0872 0.314058 17.1859C0.41276 17.2854 0.530188 17.3644 0.65957 17.4183C0.788952 17.4722 0.927726 17.5 1.06789 17.5C1.20805 17.5 1.34682 17.4722 1.4762 17.4183C1.60559 17.3644 1.72301 17.2854 1.82172 17.1859L8.5 10.4963L15.1783 17.1859C15.277 17.2854 15.3944 17.3644 15.5238 17.4183C15.6532 17.4722 15.792 17.5 15.9321 17.5C16.0723 17.5 16.211 17.4722 16.3404 17.4183C16.4698 17.3644 16.5872 17.2854 16.6859 17.1859C16.7855 17.0872 16.8644 16.9698 16.9183 16.8404C16.9722 16.711 17 16.5722 17 16.432C17 16.2918 16.9722 16.153 16.9183 16.0236C16.8644 15.8942 16.7855 15.7768 16.6859 15.6781L9.99704 8.99909Z" fill="#242424"/>
</svg>
